<svg width="64" height="64" viewBox="0 0 64 64" fill="none" xmlns="http://www.w3.org/2000/svg">
<path d="M32.0001 64C49.625 64 64 49.6247 64 31.9999C64 14.375 49.625 0 32.0001 0C14.375 0 0 14.375 0 31.9999C0 49.6247 14.375 64 32.0001 64Z" fill="#BBDEFB"/>
<path d="M42.1758 22.5231C42.0696 22.5231 41.9619 22.4991 41.8612 22.4481C41.5151 22.2741 41.3753 21.8522 41.5494 21.5058C43.5739 17.4838 46.4256 13.602 47.1973 12.8306C47.7298 12.2982 48.4365 12.003 49.1883 12C49.1917 12 49.1958 12 49.1999 12C49.949 12 50.6515 12.2906 51.1792 12.8187C51.4533 13.0928 51.4533 13.5372 51.1792 13.8111C50.9051 14.0852 50.4609 14.0852 50.1868 13.8111C49.9222 13.5465 49.5542 13.4016 49.1937 13.4036C48.8154 13.4053 48.459 13.5544 48.1897 13.8234C47.6257 14.3871 44.8453 18.0798 42.8036 22.137C42.6803 22.382 42.4329 22.5231 42.1758 22.5231Z" fill="#FF5B61"/>
<path d="M44.2819 16.2107H34.6478C33.5311 16.2107 32.4601 16.6543 31.6704 17.444L12.4127 36.7015C11.8645 37.2497 11.8645 38.1383 12.4127 38.6865L25.315 51.5887C25.8632 52.1369 26.7518 52.1369 27.2999 51.5887L46.5575 32.3311C47.3472 31.5415 47.7908 30.4705 47.7908 29.3537V19.7196C47.7909 17.7817 46.2198 16.2107 44.2819 16.2107ZM43.6653 23.3137C42.843 24.1359 41.51 24.1359 40.6879 23.3137C39.8656 22.4914 39.8656 21.1584 40.6879 20.3362C41.5101 19.5141 42.8432 19.514 43.6653 20.3362C44.4874 21.1585 44.4875 22.4916 43.6653 23.3137Z" fill="#57697D"/>
<path d="M14.5192 38.808L33.7767 19.5504C34.5664 18.7608 35.6374 18.3171 36.7541 18.3171H46.3883C46.8057 18.3171 47.2003 18.4026 47.5716 18.5362C47.0846 17.1835 45.8024 16.2107 44.2819 16.2107H34.6478C33.5311 16.2107 32.4601 16.6543 31.6704 17.444L12.4127 36.7015C11.8645 37.2497 11.8645 38.1383 12.4127 38.6865L14.5191 40.7929C13.971 40.2449 13.971 39.3562 14.5192 38.808Z" fill="#233952"/>
<path d="M42.1774 22.5231C41.9204 22.5231 41.6731 22.382 41.5497 22.1366C41.3756 21.7905 41.5154 21.3687 41.8616 21.1943C45.9181 19.1537 49.6108 16.3726 50.1749 15.8084C50.4441 15.5391 50.593 15.1827 50.5949 14.8045C50.5963 14.4282 50.4517 14.0755 50.1872 13.8111C49.9227 13.5466 49.5546 13.4016 49.1942 13.4036C48.8158 13.4053 48.4595 13.5544 48.1902 13.8234C47.916 14.0975 47.4719 14.0975 47.1977 13.8234C46.9236 13.5496 46.9236 13.1051 47.1977 12.8309C47.7301 12.2981 48.4367 12.003 49.1885 12C49.192 12 49.1961 12 49.2002 12C49.9492 12 50.6517 12.2906 51.1795 12.8187C51.7106 13.3495 52.0012 14.0567 51.9984 14.8099C51.995 15.5613 51.7003 16.2684 51.1671 16.8009C50.3961 17.5726 46.5136 20.425 42.492 22.4484C42.3913 22.4991 42.283 22.5231 42.1774 22.5231Z" fill="#FF5B61"/>
<path d="M38.3657 31.9813C36.9657 28.2626 32.4157 29.9251 32.0001 31.7845C31.4313 29.8157 26.9907 28.3501 25.6344 31.9813C24.1251 36.0282 31.4751 39.6595 32.0001 40.2501C32.5251 39.7688 39.8751 35.9626 38.3657 31.9813Z" fill="#E5E5E5"/>
</svg>
