<svg width="64" height="64" viewBox="0 0 64 64" fill="none" xmlns="http://www.w3.org/2000/svg">
<path d="M32.0001 64C49.625 64 64 49.6247 64 31.9999C64 14.375 49.625 0 32.0001 0C14.375 0 0 14.375 0 31.9999C0 49.6247 14.375 64 32.0001 64Z" fill="#BBDEFB"/>
<path d="M31.6108 19.2765L29.6758 16.757C29.4303 16.4376 29.0501 16.25 28.6472 16.25H16.9278C16.2115 16.25 15.6309 16.8306 15.6309 17.5469V37.1595H48.369V21.0801C48.369 20.3638 47.7884 19.7832 47.0721 19.7832H32.6391C32.2362 19.7832 31.856 19.5959 31.6108 19.2765Z" fill="#233952"/>
<path d="M32.6393 19.7832C32.2364 19.7832 31.8562 19.5959 31.611 19.2762L29.676 16.757C29.4305 16.4373 29.0503 16.25 28.6474 16.25H25.6569L28.1552 19.5028C28.2909 19.6797 28.5013 19.7832 28.7243 19.7832H32.6393Z" fill="#57697D"/>
<path d="M45.3249 45.6542H18.6748C18.3038 45.6542 18.0027 45.3534 18.0027 44.9821V23.0037C18.0027 22.6323 18.3038 22.3313 18.6748 22.3313H45.3249C45.696 22.3313 45.997 22.6323 45.997 23.0037V44.9821C45.997 45.3534 45.696 45.6542 45.3249 45.6542Z" fill="#FF5B61"/>
<path d="M49.0131 47.7995H14.9868C14.4419 47.7995 14 47.3576 14 46.8127V27.7674C14 27.2224 14.4419 26.7805 14.9868 26.7805H49.0131C49.558 26.7805 49.9999 27.2222 49.9999 27.7674V46.8127C49.9999 47.3576 49.558 47.7995 49.0131 47.7995Z" fill="#57697D"/>
<path d="M28.6476 36.86V34.4007C28.6476 32.552 30.1516 31.0482 32.0001 31.0482C33.8485 31.0482 35.3525 32.552 35.3525 34.4007V36.86H36.4391V34.4007C36.4391 31.9529 34.4478 29.9617 32.0001 29.9617C29.5523 29.9617 27.561 31.9529 27.561 34.4007V36.86H28.6476Z" fill="#EDEDED"/>
<path d="M36.8964 44.6606H27.1038C26.8368 44.6606 26.6201 44.4438 26.6201 44.1766V37.1734C26.6201 36.9064 26.8368 36.6897 27.1038 36.6897H36.8964C37.1634 36.6897 37.3801 36.9061 37.3801 37.1734V44.1766C37.3801 44.4438 37.1634 44.6606 36.8964 44.6606Z" fill="#FFE471"/>
<path d="M45.9973 26.7805V23.0034C45.9973 22.6323 45.6962 22.3313 45.3252 22.3313H42.3487V26.7805H45.9973Z" fill="#FF5B61"/>
<path d="M29.4739 42.2877C29.7741 42.2877 30.0172 42.0446 30.0172 41.7444V40.0772C30.0172 39.7773 29.7741 39.5339 29.4739 39.5339C29.174 39.5339 28.9309 39.7773 28.9309 40.0772V41.7444C28.9307 42.0446 29.174 42.2877 29.4739 42.2877Z" fill="#FFE471"/>
<path d="M32 42.2877C32.2999 42.2877 32.5432 42.0446 32.5432 41.7444V40.0772C32.5432 39.7773 32.2999 39.5339 32 39.5339C31.7 39.5339 31.4567 39.7773 31.4567 40.0772V41.7444C31.4567 42.0446 31.7 42.2877 32 42.2877Z" fill="#FFE471"/>
<path d="M34.526 42.2877C34.826 42.2877 35.069 42.0446 35.069 41.7444V40.0772C35.069 39.7773 34.826 39.5339 34.526 39.5339C34.2258 39.5339 33.9828 39.7773 33.9828 40.0772V41.7444C33.9828 42.0446 34.2258 42.2877 34.526 42.2877Z" fill="#FFE471"/>
</svg>
