<svg width="64" height="64" viewBox="0 0 64 64" fill="none" xmlns="http://www.w3.org/2000/svg">
<g clip-path="url(#clip0_9_169)">
<path d="M32.0001 64C49.625 64 64 49.6247 64 31.9999C64 14.375 49.625 0 32.0001 0C14.375 0 0 14.375 0 31.9999C0 49.6247 14.375 64 32.0001 64Z" fill="#BBDEFB" fill-opacity="0.8"/>
<path d="M46.64 49.5H17.36C15.78 49.5 14.5 48.3113 14.5 46.8438V30.75C14.5 29.2825 15.78 28.0938 17.36 28.0938H46.64C48.22 28.0938 49.5 29.2825 49.5 30.75V46.8438C49.5 48.3113 48.22 49.5 46.64 49.5Z" fill="#233952"/>
<path d="M46.64 19.5H17.36C15.78 19.5 14.5 20.6888 14.5 22.1562V30.75H49.5V22.1562C49.5 20.6888 48.22 19.5 46.64 19.5Z" fill="#9B9B9B"/>
<path d="M38.8167 26.9995L32.0005 25.7495L25.1842 26.9995C24.2605 26.9995 23.5117 26.3045 23.5117 25.447C23.5117 24.5908 24.2617 23.8945 25.1842 23.8945H38.8167C39.7405 23.8945 40.4892 24.5895 40.4892 25.447C40.4892 26.3045 39.7405 26.9995 38.8167 26.9995Z" fill="#321B41"/>
<path d="M38.817 27H25.2695V16.0625C25.2695 15.2 26.0233 14.5 26.952 14.5H37.1345C38.0645 14.5 38.817 15.2 38.817 16.0625V27Z" fill="#E5E5E5"/>
<path d="M44.9045 46.1128C43.8545 46.1128 43.002 45.3215 43.002 44.3465V34.4528C43.002 33.4778 43.8545 32.6865 44.9045 32.6865C45.9557 32.6865 46.807 33.4765 46.807 34.4528V44.3465C46.807 45.3215 45.9557 46.1128 44.9045 46.1128Z" fill="#E5E5E5"/>
<path d="M30.1759 24.8327H30.1684C30.0279 24.8327 29.8888 24.8043 29.7595 24.7493C29.6302 24.6944 29.5134 24.6139 29.4159 24.5127L27.2021 22.1614C27.1155 22.0713 27.0488 21.964 27.0063 21.8464C26.9638 21.7289 26.9465 21.6037 26.9554 21.479C26.9644 21.3544 26.9994 21.233 27.0583 21.1227C27.1171 21.0124 27.1985 20.9158 27.2971 20.8389C27.5033 20.6745 27.7632 20.5924 28.0265 20.6085C28.2897 20.6247 28.5376 20.738 28.7221 20.9264L30.1884 22.4839L35.2896 17.2427C35.4769 17.0573 35.7262 16.948 35.9894 16.9357C36.2526 16.9235 36.511 17.0092 36.7146 17.1764C36.8121 17.2547 36.8921 17.3526 36.9493 17.4638C37.0065 17.575 37.0396 17.697 37.0466 17.8219C37.0535 17.9467 37.0341 18.0716 36.9896 18.1885C36.9452 18.3054 36.8766 18.4116 36.7884 18.5002L30.9259 24.5252C30.8277 24.6239 30.7107 24.7019 30.5819 24.7547C30.4531 24.8075 30.3151 24.834 30.1759 24.8327Z" fill="#FF5B61"/>
</g>
<defs>
<clipPath id="clip0_9_169">
<rect width="64" height="64" fill="white"/>
</clipPath>
</defs>
</svg>
