<svg width="64" height="64" viewBox="0 0 64 64" fill="none" xmlns="http://www.w3.org/2000/svg">
<g clip-path="url(#clip0_9_159)">
<path d="M32.0001 64C49.625 64 64 49.6247 64 31.9999C64 14.375 49.625 0 32.0001 0C14.375 0 0 14.375 0 31.9999C0 49.6247 14.375 64 32.0001 64Z" fill="#BBDEFB" fill-opacity="0.8"/>
<path d="M48.3058 25.2627C48.8683 25.8252 48.8683 26.7377 48.3058 27.3002L26.5183 49.0752C25.5433 50.0502 23.8933 49.2127 24.0808 47.8502L25.1183 40.4877C25.2433 39.5377 24.4433 38.7252 23.4933 38.8627L16.1558 39.9002C14.7808 40.1002 13.9433 38.4377 14.9308 37.4502L36.7058 15.7002C37.2683 15.1377 38.1808 15.1377 38.7433 15.7002L48.3058 25.2627ZM39.0933 21.3627C38.1183 22.3377 38.1183 23.9252 39.0933 24.9002C40.0683 25.8752 41.6558 25.8752 42.6308 24.9002C43.6058 23.9252 43.6058 22.3377 42.6308 21.3627C41.6558 20.3877 40.0683 20.3877 39.0933 21.3627Z" fill="#233952"/>
<path d="M35.5186 30.8747L36.1811 28.9247C36.2109 28.8308 36.2143 28.7305 36.191 28.6348C36.1677 28.539 36.1185 28.4516 36.0489 28.3819C35.9792 28.3122 35.8917 28.2631 35.796 28.2397C35.7003 28.2164 35.6 28.2199 35.5061 28.2497L33.5311 28.8872C33.3686 28.9497 33.1686 28.9122 33.0311 28.7997L31.4311 27.5372C31.3532 27.4745 31.2592 27.4351 31.1599 27.4235C31.0606 27.4119 30.9601 27.4287 30.8699 27.4718C30.7797 27.5149 30.7036 27.5827 30.6502 27.6672C30.5969 27.7518 30.5686 27.8497 30.5686 27.9497L30.5561 30.0497C30.5561 30.2372 30.4436 30.4122 30.2811 30.5122L28.5061 31.5122C28.1061 31.7372 28.1561 32.3372 28.5811 32.4872L30.7936 33.2872C30.9436 33.3497 31.0686 33.4622 31.1186 33.6122L31.9186 35.8247C32.0811 36.2497 32.6686 36.2997 32.8936 35.8997L33.8936 34.1247C33.9811 33.9497 34.1686 33.8497 34.3561 33.8497L36.4561 33.8372C36.8936 33.8372 37.1436 33.3247 36.8686 32.9747L35.6061 31.3747C35.5494 31.3061 35.5116 31.2239 35.4963 31.1363C35.4809 31.0486 35.4886 30.9585 35.5186 30.8747Z" fill="#FF5B61"/>
<path d="M41.9941 20.2625V15.125C41.9941 14.7875 42.2816 14.5 42.6191 14.5C42.9691 14.5 43.2441 14.7875 43.2441 15.125V20.0287C43.3473 19.995 43.4576 19.9893 43.5637 20.0123C43.6698 20.0353 43.7678 20.0861 43.8478 20.1596C43.9277 20.233 43.9866 20.3264 44.0185 20.4302C44.0504 20.534 44.0541 20.6443 44.0291 20.75H48.8691C49.2066 20.75 49.4941 21.025 49.4941 21.375C49.4941 21.7125 49.2066 22 48.8691 22H43.7316C43.6254 21.9997 43.5209 21.9725 43.428 21.9209C43.3351 21.8694 43.2568 21.7951 43.2004 21.705L43.1316 21.775C43.0149 21.877 42.8638 21.9309 42.7089 21.9257C42.5539 21.9205 42.4067 21.8567 42.2971 21.747C42.1875 21.6374 42.1236 21.4902 42.1184 21.3353C42.1132 21.1803 42.1671 21.0292 42.2691 20.9125L42.3529 20.8275C42.2457 20.777 42.155 20.6971 42.0915 20.5971C42.028 20.497 41.9942 20.381 41.9941 20.2625Z" fill="#FF5B61"/>
</g>
<defs>
<clipPath id="clip0_9_159">
<rect width="64" height="64" fill="white"/>
</clipPath>
</defs>
</svg>
