<svg width="64" height="64" viewBox="0 0 64 64" fill="none" xmlns="http://www.w3.org/2000/svg">
<path d="M32.0001 64C49.625 64 64 49.6247 64 31.9999C64 14.375 49.625 0 32.0001 0C14.375 0 0 14.375 0 31.9999C0 49.6247 14.375 64 32.0001 64Z" fill="#BBDEFB"/>
<g filter="url(#filter0_dd_9_126)">
<path d="M44.6625 17.1357H22.7813C21.8148 17.1357 21.0312 17.9192 21.0312 18.8857V47.622C21.0312 48.5885 21.8148 49.372 22.7813 49.372H44.6625C45.629 49.372 46.4125 48.5885 46.4125 47.622V18.8857C46.4125 17.9192 45.629 17.1357 44.6625 17.1357Z" fill="url(#paint0_linear_9_126)"/>
<path d="M44.6625 17.1357H22.7813C21.8148 17.1357 21.0312 17.9192 21.0312 18.8857V47.622C21.0312 48.5885 21.8148 49.372 22.7813 49.372H44.6625C45.629 49.372 46.4125 48.5885 46.4125 47.622V18.8857C46.4125 17.9192 45.629 17.1357 44.6625 17.1357Z" fill="#E5E5E5"/>
</g>
<g filter="url(#filter1_f_9_126)">
<path d="M35.743 17.137H23.1143C22.2218 17.137 21.498 17.9195 21.498 18.887V47.622C21.498 47.6857 21.5018 47.7482 21.5068 47.8095H40.0755C40.9005 47.8095 41.5705 47.0845 41.5705 46.192V23.922C41.5725 23.62 41.461 23.3282 41.258 23.1045L35.7455 17.1357L35.743 17.137Z" fill="#91879F"/>
</g>
<g filter="url(#filter2_dddd_9_126)">
<path d="M34.3322 14.985C34.1152 14.7686 33.8211 14.6472 33.5147 14.6475H18.1734C17.2797 14.6475 16.5547 15.3725 16.5547 16.265V45.3025C16.5547 46.1975 17.2797 46.9225 18.1734 46.9225H40.2822C41.1772 46.9225 41.9009 46.1975 41.9009 45.3025V23.0337C41.9012 22.7273 41.7798 22.4332 41.5634 22.2162L34.3322 14.985Z" fill="#233952"/>
</g>
<g filter="url(#filter3_f_9_126)">
<path d="M33.5639 15.125C33.5639 14.8925 33.6314 14.7437 33.5039 14.7188C33.6252 14.7262 33.8002 14.77 33.9114 14.8137C34.0527 14.87 33.8777 14.9937 33.9889 15.1012L33.9989 15.1125L41.2289 22.3425C41.4448 22.5598 41.5661 22.8536 41.5664 23.16V23.2325C41.5664 22.9637 41.3739 22.8037 41.2289 22.8037H34.9502C34.5822 22.8037 34.2293 22.6576 33.969 22.3974C33.7088 22.1372 33.5627 21.7842 33.5627 21.4162L33.5639 15.125Z" fill="#D2C5DF"/>
</g>
<g filter="url(#filter4_dd_9_126)">
<path d="M33.8979 15.0004C33.8979 14.7666 33.7154 14.6754 33.5879 14.6504C33.8683 14.668 34.1327 14.7871 34.3316 14.9854L41.5616 22.2166C41.6693 22.3238 41.7547 22.4512 41.8128 22.5915C41.8709 22.7318 41.9007 22.8823 41.9004 23.0341V23.1066C41.9004 22.8379 41.7066 22.6779 41.5629 22.6779H35.2854C34.9174 22.6779 34.5645 22.5317 34.3043 22.2715C34.0441 22.0113 33.8979 21.6584 33.8979 21.2904V14.9991V15.0004Z" fill="url(#paint1_linear_9_126)"/>
</g>
<path d="M33.8979 15.0004C33.8979 14.7666 33.7154 14.6754 33.5879 14.6504C33.8683 14.668 34.1327 14.7871 34.3316 14.9854L41.5616 22.2166C41.6693 22.3238 41.7547 22.4512 41.8128 22.5915C41.8709 22.7318 41.9007 22.8823 41.9004 23.0341V23.1066C41.9004 22.8379 41.7066 22.6779 41.5629 22.6779H35.2854C34.9174 22.6779 34.5645 22.5317 34.3043 22.2715C34.0441 22.0113 33.8979 21.6584 33.8979 21.2904V14.9991V15.0004Z" fill="#E5E5E5"/>
<path d="M36.6934 26.1553H21.7534C21.4366 26.1553 21.1797 26.4121 21.1797 26.729C21.1797 27.0459 21.4366 27.3028 21.7534 27.3028H36.6934C37.0103 27.3028 37.2672 27.0459 37.2672 26.729C37.2672 26.4121 37.0103 26.1553 36.6934 26.1553Z" fill="#E5E5E5"/>
<path d="M36.6934 29.624H21.7534C21.4366 29.624 21.1797 29.8809 21.1797 30.1978C21.1797 30.5146 21.4366 30.7715 21.7534 30.7715H36.6934C37.0103 30.7715 37.2672 30.5146 37.2672 30.1978C37.2672 29.8809 37.0103 29.624 36.6934 29.624Z" fill="#E5E5E5"/>
<path d="M36.6934 33.0928H21.7534C21.4366 33.0928 21.1797 33.3496 21.1797 33.6665C21.1797 33.9834 21.4366 34.2403 21.7534 34.2403H36.6934C37.0103 34.2403 37.2672 33.9834 37.2672 33.6665C37.2672 33.3496 37.0103 33.0928 36.6934 33.0928Z" fill="#E5E5E5"/>
<path d="M30.9934 36.5615H21.7534C21.4366 36.5615 21.1797 36.8184 21.1797 37.1353C21.1797 37.4521 21.4366 37.709 21.7534 37.709H30.9934C31.3103 37.709 31.5672 37.4521 31.5672 37.1353C31.5672 36.8184 31.3103 36.5615 30.9934 36.5615Z" fill="#E5E5E5"/>
<g filter="url(#filter5_f_9_126)">
<path d="M41.7449 28.8545H40.0174C39.9328 28.855 39.8494 28.8739 39.7728 28.9097C39.6962 28.9455 39.6283 28.9974 39.5736 29.062L38.4474 30.3745C38.3981 30.4329 38.3711 30.5068 38.3711 30.5832C38.3711 30.6596 38.3981 30.7336 38.4474 30.792L39.5724 32.1045C39.6861 32.237 39.8474 32.312 40.0174 32.312H41.7449V28.8545Z" fill="#BAA8C1"/>
</g>
<g filter="url(#filter6_dd_9_126)">
<path d="M40.2887 28.6528C40.3474 28.5874 40.4193 28.5351 40.4997 28.4993C40.58 28.4636 40.667 28.4452 40.7549 28.4453H44.8799C44.9628 28.4453 45.0423 28.4782 45.1009 28.5368C45.1595 28.5954 45.1924 28.6749 45.1924 28.7578V31.5903C45.1924 31.6732 45.1595 31.7527 45.1009 31.8113C45.0423 31.8699 44.9628 31.9028 44.8799 31.9028H40.7549C40.6672 31.9028 40.5805 31.8843 40.5004 31.8486C40.4202 31.8128 40.3486 31.7606 40.2899 31.6953L39.1112 30.3828C39.0597 30.3255 39.0312 30.2511 39.0312 30.1741C39.0312 30.097 39.0597 30.0227 39.1112 29.9653L40.2899 28.6528H40.2887Z" fill="url(#paint2_linear_9_126)"/>
<path d="M40.2887 28.6528C40.3474 28.5874 40.4193 28.5351 40.4997 28.4993C40.58 28.4636 40.667 28.4452 40.7549 28.4453H44.8799C44.9628 28.4453 45.0423 28.4782 45.1009 28.5368C45.1595 28.5954 45.1924 28.6749 45.1924 28.7578V31.5903C45.1924 31.6732 45.1595 31.7527 45.1009 31.8113C45.0423 31.8699 44.9628 31.9028 44.8799 31.9028H40.7549C40.6672 31.9028 40.5805 31.8843 40.5004 31.8486C40.4202 31.8128 40.3486 31.7606 40.2899 31.6953L39.1112 30.3828C39.0597 30.3255 39.0312 30.2511 39.0312 30.1741C39.0312 30.097 39.0597 30.0227 39.1112 29.9653L40.2899 28.6528H40.2887Z" fill="#FF5B61"/>
</g>
<g filter="url(#filter7_f_9_126)">
<path d="M46.2954 37.6104V41.0679H43.7879C43.7021 41.0677 43.6172 41.049 43.5392 41.0132C43.4611 40.9774 43.3916 40.9253 43.3354 40.8603L42.1892 39.5479C42.139 39.4899 42.1113 39.4158 42.1113 39.3391C42.1113 39.2624 42.139 39.1883 42.1892 39.1304L43.3354 37.8178C43.3916 37.7529 43.4611 37.7008 43.5392 37.665C43.6172 37.6292 43.7021 37.6105 43.7879 37.6104H46.2954Z" fill="#91879F"/>
</g>
<g filter="url(#filter8_dd_9_126)">
<path d="M44.0204 37.3432C44.079 37.278 44.1507 37.2257 44.2308 37.19C44.3109 37.1542 44.3977 37.1358 44.4854 37.1357H48.6104C48.6933 37.1357 48.7728 37.1687 48.8314 37.2273C48.89 37.2859 48.9229 37.3654 48.9229 37.4482V40.2807C48.9229 40.3636 48.89 40.4431 48.8314 40.5017C48.7728 40.5603 48.6933 40.5932 48.6104 40.5932H44.4854C44.3977 40.5932 44.3109 40.5747 44.2308 40.539C44.1507 40.5032 44.079 40.451 44.0204 40.3857L42.8417 39.0732C42.7902 39.0159 42.7617 38.9416 42.7617 38.8645C42.7617 38.7874 42.7902 38.7131 42.8417 38.6557L44.0204 37.3432Z" fill="url(#paint3_linear_9_126)"/>
<path d="M44.0204 37.3432C44.079 37.278 44.1507 37.2257 44.2308 37.19C44.3109 37.1542 44.3977 37.1358 44.4854 37.1357H48.6104C48.6933 37.1357 48.7728 37.1687 48.8314 37.2273C48.89 37.2859 48.9229 37.3654 48.9229 37.4482V40.2807C48.9229 40.3636 48.89 40.4431 48.8314 40.5017C48.7728 40.5603 48.6933 40.5932 48.6104 40.5932H44.4854C44.3977 40.5932 44.3109 40.5747 44.2308 40.539C44.1507 40.5032 44.079 40.451 44.0204 40.3857L42.8417 39.0732C42.7902 39.0159 42.7617 38.9416 42.7617 38.8645C42.7617 38.7874 42.7902 38.7131 42.8417 38.6557L44.0204 37.3432Z" fill="#FF5B61"/>
</g>
<defs>
<filter id="filter0_dd_9_126" x="20.8062" y="16.9857" width="25.7563" height="32.6113" filterUnits="userSpaceOnUse" color-interpolation-filters="sRGB">
<feFlood flood-opacity="0" result="BackgroundImageFix"/>
<feColorMatrix in="SourceAlpha" type="matrix" values="0 0 0 0 0 0 0 0 0 0 0 0 0 0 0 0 0 0 127 0" result="hardAlpha"/>
<feOffset dx="0.075" dy="-0.075"/>
<feGaussianBlur stdDeviation="0.0375"/>
<feComposite in2="hardAlpha" operator="out"/>
<feColorMatrix type="matrix" values="0 0 0 0 0.596078 0 0 0 0 0.529412 0 0 0 0 0.67451 0 0 0 1 0"/>
<feBlend mode="normal" in2="BackgroundImageFix" result="effect1_dropShadow_9_126"/>
<feColorMatrix in="SourceAlpha" type="matrix" values="0 0 0 0 0 0 0 0 0 0 0 0 0 0 0 0 0 0 127 0" result="hardAlpha"/>
<feOffset dx="-0.075" dy="0.075"/>
<feGaussianBlur stdDeviation="0.075"/>
<feComposite in2="hardAlpha" operator="out"/>
<feColorMatrix type="matrix" values="0 0 0 0 0.811765 0 0 0 0 0.8 0 0 0 0 0.827451 0 0 0 1 0"/>
<feBlend mode="normal" in2="effect1_dropShadow_9_126" result="effect2_dropShadow_9_126"/>
<feBlend mode="normal" in="SourceGraphic" in2="effect2_dropShadow_9_126" result="shape"/>
</filter>
<filter id="filter1_f_9_126" x="20.748" y="16.3857" width="21.5725" height="32.1738" filterUnits="userSpaceOnUse" color-interpolation-filters="sRGB">
<feFlood flood-opacity="0" result="BackgroundImageFix"/>
<feBlend mode="normal" in="SourceGraphic" in2="BackgroundImageFix" result="shape"/>
<feGaussianBlur stdDeviation="0.375" result="effect1_foregroundBlur_9_126"/>
</filter>
<filter id="filter2_dddd_9_126" x="16.3297" y="13.9725" width="26.2462" height="33.1749" filterUnits="userSpaceOnUse" color-interpolation-filters="sRGB">
<feFlood flood-opacity="0" result="BackgroundImageFix"/>
<feColorMatrix in="SourceAlpha" type="matrix" values="0 0 0 0 0 0 0 0 0 0 0 0 0 0 0 0 0 0 127 0" result="hardAlpha"/>
<feOffset dx="0.225" dy="-0.225"/>
<feGaussianBlur stdDeviation="0.225"/>
<feComposite in2="hardAlpha" operator="out"/>
<feColorMatrix type="matrix" values="0 0 0 0 0.807843 0 0 0 0 0.768627 0 0 0 0 0.85098 0 0 0 1 0"/>
<feBlend mode="normal" in2="BackgroundImageFix" result="effect1_dropShadow_9_126"/>
<feColorMatrix in="SourceAlpha" type="matrix" values="0 0 0 0 0 0 0 0 0 0 0 0 0 0 0 0 0 0 127 0" result="hardAlpha"/>
<feOffset dx="0.075" dy="-0.075"/>
<feGaussianBlur stdDeviation="0.075"/>
<feComposite in2="hardAlpha" operator="out"/>
<feColorMatrix type="matrix" values="0 0 0 0 0.709804 0 0 0 0 0.690196 0 0 0 0 0.733333 0 0 0 1 0"/>
<feBlend mode="normal" in2="effect1_dropShadow_9_126" result="effect2_dropShadow_9_126"/>
<feColorMatrix in="SourceAlpha" type="matrix" values="0 0 0 0 0 0 0 0 0 0 0 0 0 0 0 0 0 0 127 0" result="hardAlpha"/>
<feOffset dy="-0.075"/>
<feGaussianBlur stdDeviation="0.075"/>
<feComposite in2="hardAlpha" operator="out"/>
<feColorMatrix type="matrix" values="0 0 0 0 0.72549 0 0 0 0 0.65098 0 0 0 0 0.8 0 0 0 1 0"/>
<feBlend mode="normal" in2="effect2_dropShadow_9_126" result="effect3_dropShadow_9_126"/>
<feColorMatrix in="SourceAlpha" type="matrix" values="0 0 0 0 0 0 0 0 0 0 0 0 0 0 0 0 0 0 127 0" result="hardAlpha"/>
<feOffset dx="-0.1125" dy="0.1125"/>
<feGaussianBlur stdDeviation="0.0375"/>
<feComposite in2="hardAlpha" operator="out"/>
<feColorMatrix type="matrix" values="0 0 0 0 0.952941 0 0 0 0 0.941176 0 0 0 0 0.964706 0 0 0 1 0"/>
<feBlend mode="normal" in2="effect3_dropShadow_9_126" result="effect4_dropShadow_9_126"/>
<feBlend mode="normal" in="SourceGraphic" in2="effect4_dropShadow_9_126" result="shape"/>
</filter>
<filter id="filter3_f_9_126" x="33.1289" y="14.3438" width="8.8125" height="9.26367" filterUnits="userSpaceOnUse" color-interpolation-filters="sRGB">
<feFlood flood-opacity="0" result="BackgroundImageFix"/>
<feBlend mode="normal" in="SourceGraphic" in2="BackgroundImageFix" result="shape"/>
<feGaussianBlur stdDeviation="0.1875" result="effect1_foregroundBlur_9_126"/>
</filter>
<filter id="filter4_dd_9_126" x="33.4754" y="14.4629" width="8.6125" height="8.75605" filterUnits="userSpaceOnUse" color-interpolation-filters="sRGB">
<feFlood flood-opacity="0" result="BackgroundImageFix"/>
<feColorMatrix in="SourceAlpha" type="matrix" values="0 0 0 0 0 0 0 0 0 0 0 0 0 0 0 0 0 0 127 0" result="hardAlpha"/>
<feOffset dx="0.075"/>
<feGaussianBlur stdDeviation="0.05625"/>
<feComposite in2="hardAlpha" operator="out"/>
<feColorMatrix type="matrix" values="0 0 0 0 0.631373 0 0 0 0 0.611765 0 0 0 0 0.654902 0 0 0 1 0"/>
<feBlend mode="normal" in2="BackgroundImageFix" result="effect1_dropShadow_9_126"/>
<feColorMatrix in="SourceAlpha" type="matrix" values="0 0 0 0 0 0 0 0 0 0 0 0 0 0 0 0 0 0 127 0" result="hardAlpha"/>
<feOffset dy="-0.075"/>
<feGaussianBlur stdDeviation="0.05625"/>
<feComposite in2="hardAlpha" operator="out"/>
<feColorMatrix type="matrix" values="0 0 0 0 0.752941 0 0 0 0 0.67451 0 0 0 0 0.835294 0 0 0 1 0"/>
<feBlend mode="normal" in2="effect1_dropShadow_9_126" result="effect2_dropShadow_9_126"/>
<feBlend mode="normal" in="SourceGraphic" in2="effect2_dropShadow_9_126" result="shape"/>
</filter>
<filter id="filter5_f_9_126" x="37.9211" y="28.4045" width="4.27378" height="4.35752" filterUnits="userSpaceOnUse" color-interpolation-filters="sRGB">
<feFlood flood-opacity="0" result="BackgroundImageFix"/>
<feBlend mode="normal" in="SourceGraphic" in2="BackgroundImageFix" result="shape"/>
<feGaussianBlur stdDeviation="0.225" result="effect1_foregroundBlur_9_126"/>
</filter>
<filter id="filter6_dd_9_126" x="38.6562" y="28.0703" width="6.91113" height="4.20752" filterUnits="userSpaceOnUse" color-interpolation-filters="sRGB">
<feFlood flood-opacity="0" result="BackgroundImageFix"/>
<feColorMatrix in="SourceAlpha" type="matrix" values="0 0 0 0 0 0 0 0 0 0 0 0 0 0 0 0 0 0 127 0" result="hardAlpha"/>
<feOffset dx="-0.15" dy="0.15"/>
<feGaussianBlur stdDeviation="0.1125"/>
<feComposite in2="hardAlpha" operator="out"/>
<feColorMatrix type="matrix" values="0 0 0 0 0.92549 0 0 0 0 0.4 0 0 0 0 0.576471 0 0 0 1 0"/>
<feBlend mode="normal" in2="BackgroundImageFix" result="effect1_dropShadow_9_126"/>
<feColorMatrix in="SourceAlpha" type="matrix" values="0 0 0 0 0 0 0 0 0 0 0 0 0 0 0 0 0 0 127 0" result="hardAlpha"/>
<feOffset dx="0.15" dy="-0.15"/>
<feGaussianBlur stdDeviation="0.1125"/>
<feComposite in2="hardAlpha" operator="out"/>
<feColorMatrix type="matrix" values="0 0 0 0 0.721569 0 0 0 0 0.223529 0 0 0 0 0.376471 0 0 0 1 0"/>
<feBlend mode="normal" in2="effect1_dropShadow_9_126" result="effect2_dropShadow_9_126"/>
<feBlend mode="normal" in="SourceGraphic" in2="effect2_dropShadow_9_126" result="shape"/>
</filter>
<filter id="filter7_f_9_126" x="41.8113" y="37.3104" width="4.78408" height="4.05752" filterUnits="userSpaceOnUse" color-interpolation-filters="sRGB">
<feFlood flood-opacity="0" result="BackgroundImageFix"/>
<feBlend mode="normal" in="SourceGraphic" in2="BackgroundImageFix" result="shape"/>
<feGaussianBlur stdDeviation="0.15" result="effect1_foregroundBlur_9_126"/>
</filter>
<filter id="filter8_dd_9_126" x="42.3867" y="36.7607" width="6.91113" height="4.20752" filterUnits="userSpaceOnUse" color-interpolation-filters="sRGB">
<feFlood flood-opacity="0" result="BackgroundImageFix"/>
<feColorMatrix in="SourceAlpha" type="matrix" values="0 0 0 0 0 0 0 0 0 0 0 0 0 0 0 0 0 0 127 0" result="hardAlpha"/>
<feOffset dx="-0.15" dy="0.15"/>
<feGaussianBlur stdDeviation="0.1125"/>
<feComposite in2="hardAlpha" operator="out"/>
<feColorMatrix type="matrix" values="0 0 0 0 0.988235 0 0 0 0 0.929412 0 0 0 0 0.439216 0 0 0 1 0"/>
<feBlend mode="normal" in2="BackgroundImageFix" result="effect1_dropShadow_9_126"/>
<feColorMatrix in="SourceAlpha" type="matrix" values="0 0 0 0 0 0 0 0 0 0 0 0 0 0 0 0 0 0 127 0" result="hardAlpha"/>
<feOffset dx="0.15" dy="-0.15"/>
<feGaussianBlur stdDeviation="0.1125"/>
<feComposite in2="hardAlpha" operator="out"/>
<feColorMatrix type="matrix" values="0 0 0 0 0.647059 0 0 0 0 0.411765 0 0 0 0 0.278431 0 0 0 1 0"/>
<feBlend mode="normal" in2="effect1_dropShadow_9_126" result="effect2_dropShadow_9_126"/>
<feBlend mode="normal" in="SourceGraphic" in2="effect2_dropShadow_9_126" result="shape"/>
</filter>
<linearGradient id="paint0_linear_9_126" x1="38.0338" y1="42.312" x2="47.4088" y2="46.7657" gradientUnits="userSpaceOnUse">
<stop stop-color="#AFAAB6"/>
<stop offset="1" stop-color="#B7B0C0"/>
</linearGradient>
<linearGradient id="paint1_linear_9_126" x1="34.4754" y1="22.3529" x2="37.5291" y2="19.2991" gradientUnits="userSpaceOnUse">
<stop stop-color="#D9D3E1"/>
<stop offset="1" stop-color="#CCC7D1"/>
</linearGradient>
<linearGradient id="paint2_linear_9_126" x1="42.1112" y1="28.4453" x2="42.1112" y2="31.9028" gradientUnits="userSpaceOnUse">
<stop stop-color="#E0437B"/>
<stop offset="1" stop-color="#DC4369"/>
</linearGradient>
<linearGradient id="paint3_linear_9_126" x1="45.8429" y1="37.1357" x2="45.8429" y2="40.5932" gradientUnits="userSpaceOnUse">
<stop stop-color="#E4BD58"/>
<stop offset="1" stop-color="#D89D52"/>
</linearGradient>
</defs>
</svg>
