<svg width="80" height="80" viewBox="0 0 80 80" fill="none" xmlns="http://www.w3.org/2000/svg">
<path d="M40 80C62.0914 80 80 62.0914 80 40C80 17.9086 62.0914 0 40 0C17.9086 0 0 17.9086 0 40C0 62.0914 17.9086 80 40 80Z" fill="#BBDEFB"/>
<path d="M43.4778 54.5875L33.5039 57.6056L33.183 58.7274C32.7273 60.3239 30.9959 61.6298 29.3359 61.6298V62.3843H47.6458V61.6298L43.4778 54.5875Z" fill="#233952"/>
<path d="M46.8166 58.7274L45.6335 54.5876L39.9997 51.5695L34.3659 54.5876L33.5038 57.6057H43.4776L43.7985 58.7274C44.2543 60.324 45.9856 61.6298 47.6456 61.6298L49.1547 62.3844L50.6637 61.6298C49.0038 61.6298 47.2724 60.324 46.8166 58.7274Z" fill="#233952"/>
<path d="M55.5938 63.1388H24.4066C23.9899 63.1388 23.6521 62.801 23.6521 62.3843C23.6521 61.9676 23.9899 61.6298 24.4066 61.6298H55.5938C56.0105 61.6298 56.3483 61.9676 56.3483 62.3843C56.3483 62.801 56.0105 63.1388 55.5938 63.1388Z" fill="#233952"/>
<path d="M61.9819 16.8612H58.9637V54.5876H61.9819C63.6418 54.5876 65 53.2294 65 51.5695V19.8793C65 18.2194 63.6418 16.8612 61.9819 16.8612Z" fill="#57697D"/>
<path d="M58.9638 16.8612H18.0181C16.3581 16.8612 15 18.2194 15 19.8793V51.5695C15 53.2294 16.3581 54.5876 18.0181 54.5876H58.9638C60.6237 54.5876 61.9819 53.2294 61.9819 51.5695V48.5514L40 34.2153L61.9819 19.8793C61.9819 18.2194 60.6237 16.8612 58.9638 16.8612Z" fill="#57697D"/>
<path d="M61.9819 19.8793L58.9644 19.8766C58.9643 19.8773 40 34.2126 40 34.2126C40 34.2126 58.964 48.5483 58.9638 48.5486L61.9818 48.5461C61.9819 48.5462 61.9816 19.8799 61.9819 19.8793Z" fill="#FF5B61"/>
<path d="M58.964 19.8793L18.0272 19.8766C18.0248 19.878 18.0227 48.548 18.0184 48.5486C18.0184 48.5486 58.962 48.5461 58.963 48.5461C58.9635 48.5462 58.9598 19.8799 58.964 19.8793Z" fill="#FF5B61"/>
<path d="M62.0503 52.3213C62.467 52.3213 62.8048 51.9835 62.8048 51.5668C62.8048 51.1501 62.467 50.8123 62.0503 50.8123C61.6336 50.8123 61.2958 51.1501 61.2958 51.5668C61.2958 51.9835 61.6336 52.3213 62.0503 52.3213Z" fill="#85CF75"/>
<path d="M59.032 52.3213C59.4487 52.3213 59.7866 51.9835 59.7866 51.5668C59.7866 51.1501 59.4487 50.8123 59.032 50.8123C58.6153 50.8123 58.2775 51.1501 58.2775 51.5668C58.2775 51.9835 58.6153 52.3213 59.032 52.3213Z" fill="#3D5168"/>
<path d="M41.6912 36.5688L43.5417 42.0052L41.3282 42.8906L39.1943 37.4772L35.5004 40.2716L36.8196 27.0709L46.3166 36.335L41.6912 36.5688Z" fill="white"/>
</svg>
