<svg width="80" height="80" viewBox="0 0 80 80" fill="none" xmlns="http://www.w3.org/2000/svg">
<path d="M40 80C62.0914 80 80 62.0914 80 40C80 17.9086 62.0914 0 40 0C17.9086 0 0 17.9086 0 40C0 62.0914 17.9086 80 40 80Z" fill="#BBDEFB"/>
<path d="M36.6146 41.2509C36.6146 41.2509 41.4631 21.9308 60.1736 16.5086C78.8841 11.0864 54.5169 25.8571 54.5169 25.8571C54.5169 25.8571 59.6918 23.8005 60.2047 25.7636C60.9534 28.6297 51.6731 30.0639 37.7334 41.5625L36.6146 41.2509Z" fill="#57697D"/>
<path d="M44.3958 39.5469H32.5536V43.1672H44.3958V39.5469Z" fill="#CF4F53"/>
<path d="M45.9819 42.4976H30.9675L27.8125 48.1238V59.5335H49.1369V48.1238L45.9819 42.4976Z" fill="#FF5B61"/>
<path d="M49.1369 48.1238L45.9819 42.4976H38.3594V59.5335H49.1369V48.1238Z" fill="#FF5B61"/>
<path d="M47.5815 50.5625H29.3659V57.6837H47.5815V50.5625Z" fill="#CF4F53"/>
<path d="M47.5833 50.5625H38.3599V57.6837H47.5833V50.5625Z" fill="#CF4F53"/>
</svg>
