<svg width="80" height="80" viewBox="0 0 80 80" fill="none" xmlns="http://www.w3.org/2000/svg">
<path d="M40 80C62.0914 80 80 62.0914 80 40C80 17.9086 62.0914 0 40 0C17.9086 0 0 17.9086 0 40C0 62.0914 17.9086 80 40 80Z" fill="#BBDEFB"/>
<path d="M54.9485 24.1602H48.3567V17.5684C48.3567 16.83 47.7767 16.25 47.0383 16.25H25.9863C23.7977 16.25 22.0312 18.0165 22.0312 20.2051V57.2949C22.0312 59.4833 23.7977 61.25 25.9863 61.25H52.3118C54.5004 61.25 56.2668 59.4833 56.2668 57.2949V25.4785C56.2668 24.7401 55.6869 24.1602 54.9485 24.1602Z" fill="#F6F9FF"/>
<path d="M56.2667 26.7969H47.0382C46.3095 26.7969 45.7198 26.2072 45.7198 25.4785V16.25H48.5934C49.6285 16.25 50.643 16.6697 51.3743 17.4022L55.1157 21.1449C55.8469 21.8788 56.2667 22.8907 56.2667 23.9232V26.7969Z" fill="#ABD4EC"/>
<path d="M41.7648 47.8906H39.1281V45.2539H41.7648C43.5048 45.2539 43.5048 47.8906 41.7648 47.8906Z" fill="#1689FC"/>
<path d="M41.7648 42.6172H39.1281V39.9805H41.7648C43.5048 39.9805 43.5048 42.6172 41.7648 42.6172Z" fill="#1689FC"/>
<path d="M41.7648 37.3438H39.1281V34.707H41.7648C43.5048 34.707 43.5048 37.3438 41.7648 37.3438Z" fill="#1689FC"/>
<path d="M47.0382 55.9766H39.1281V53.3398H47.0382C48.7783 53.3398 48.7783 55.9766 47.0382 55.9766Z" fill="#1689FC"/>
<path d="M47.0387 32.0703H39.1285V29.4336H47.0387C48.7787 29.4336 48.7787 32.0703 47.0387 32.0703Z" fill="#1689FC"/>
<path d="M56.2668 25.4785V57.2949C56.2668 59.4833 54.5004 61.25 52.3117 61.25H39.1281V16.25H47.0383C47.7766 16.25 48.3566 16.83 48.3566 17.5684V24.1602H54.9484C55.6868 24.1602 56.2668 24.7401 56.2668 25.4785Z" fill="#F6F9FF"/>
<path d="M41.7648 37.3438H28.623C26.883 37.3438 26.883 34.707 28.623 34.707H41.7648C43.5049 34.707 43.5049 37.3438 41.7648 37.3438Z" fill="#FF5B61"/>
<path d="M41.7648 42.6172H28.623C26.883 42.6172 26.883 39.9805 28.623 39.9805H41.7648C43.5049 39.9805 43.5049 42.6172 41.7648 42.6172Z" fill="#FF5B61"/>
<path d="M41.7648 47.8906H28.623C26.883 47.8906 26.883 45.2539 28.623 45.2539H41.7648C43.5049 45.2539 43.5049 47.8906 41.7648 47.8906Z" fill="#FF5B61"/>
<path d="M47.0383 55.9766H39.1281C37.3882 55.9766 37.3882 53.3398 39.1281 53.3398H47.0383C48.7783 53.3398 48.7783 55.9766 47.0383 55.9766Z" fill="#FF5B61"/>
<path d="M47.0391 32.0703H28.6239C26.8839 32.0703 26.8839 29.4336 28.6239 29.4336H47.0391C48.7792 29.4336 48.7792 32.0703 47.0391 32.0703Z" fill="#FF5B61"/>
<path d="M50.7483 52.1603L48.7423 54.1662L58.1758 63.5997C58.6366 64.0606 59.3956 64.0606 59.8565 63.5997L60.1818 63.2744C60.6426 62.8136 60.6426 62.0546 60.1818 61.5938L50.7483 52.1603Z" fill="#2B3B4E"/>
<path d="M52.5302 57.9688L57.3604 62.7991L59.373 60.7864L54.5428 55.9562L52.5302 57.9688Z" fill="#57697D"/>
<path d="M46.2483 58.151C50.9343 58.151 54.733 54.3523 54.733 49.6663C54.733 44.9804 50.9343 41.1816 46.2483 41.1816C41.5623 41.1816 37.7636 44.9804 37.7636 49.6663C37.7636 54.3523 41.5623 58.151 46.2483 58.151Z" fill="#57697D"/>
<path d="M46.2483 55.8469C49.6617 55.8469 52.4288 53.0798 52.4288 49.6664C52.4288 46.253 49.6617 43.4858 46.2483 43.4858C42.8348 43.4858 40.0677 46.253 40.0677 49.6664C40.0677 53.0798 42.8348 55.8469 46.2483 55.8469Z" fill="#84DBFF"/>
<path d="M43.5919 52.7566C43.4564 52.8921 43.2667 52.8921 43.1311 52.7566C41.4233 51.0488 41.4233 48.2567 43.1311 46.5489C43.2667 46.4134 43.4564 46.4134 43.5919 46.5489C43.7275 46.6845 43.7275 46.8742 43.5919 47.0098C42.1281 48.4736 42.1281 50.859 43.5919 52.2957C43.7275 52.4313 43.7275 52.6481 43.5919 52.7566Z" fill="white"/>
</svg>
