<svg width="79" height="32" viewBox="0 0 79 32" fill="none" xmlns="http://www.w3.org/2000/svg">
<rect width="79" height="32" rx="4" fill="white"/>
<path d="M26.1169 17.9104C27.1735 13.4425 24.4026 8.96535 19.9281 7.91036C15.4535 6.85537 10.9697 9.62205 9.91309 14.0899C8.85652 18.5578 11.6273 23.0349 16.1019 24.0899C20.5765 25.1449 25.0603 22.3782 26.1169 17.9104Z" fill="#5F259F"/>
<path d="M51.7925 20.7504V17.7319C51.7925 16.9889 51.5134 16.6173 50.8158 16.6173C50.5367 16.6173 50.2112 16.6638 50.0251 16.7102V21.1219C50.0251 21.2612 49.8856 21.4005 49.7461 21.4005H48.6764C48.5369 21.4005 48.3973 21.2612 48.3973 21.1219V15.9672C48.3973 15.7814 48.5369 15.6421 48.6764 15.5957C49.374 15.3635 50.0716 15.2242 50.8158 15.2242C52.4901 15.2242 53.4203 16.1065 53.4203 17.7319V21.1683C53.4203 21.3077 53.2807 21.447 53.1412 21.447H52.4901C52.0715 21.447 51.7925 21.1219 51.7925 20.7504ZM55.9782 18.9393L55.9317 19.3572C55.9317 19.9145 56.3038 20.2396 56.9084 20.2396C57.3735 20.2396 57.7921 20.1003 58.2571 19.8681C58.3036 19.8681 58.3502 19.8216 58.3967 19.8216C58.4897 19.8216 58.5362 19.8681 58.5827 19.9145C58.6292 19.9609 58.7222 20.1003 58.7222 20.1003C58.8152 20.2396 58.9083 20.4253 58.9083 20.5646C58.9083 20.7968 58.7687 21.029 58.5827 21.1219C58.0711 21.4005 57.4665 21.5399 56.8154 21.5399C56.0712 21.5399 55.4666 21.3541 55.0015 20.9826C54.5365 20.5646 54.2574 20.0074 54.2574 19.3108V17.4997C54.2574 16.0601 55.1876 15.1777 56.7689 15.1777C58.3036 15.1777 59.1873 16.0136 59.1873 17.4997V18.6142C59.1873 18.7535 59.0478 18.8928 58.9083 18.8928H55.9782V18.9393ZM55.9317 17.9176H57.699V17.4532C57.699 16.896 57.3735 16.5245 56.8154 16.5245C56.2573 16.5245 55.9317 16.8495 55.9317 17.4532V17.9176ZM67.7914 18.9393L67.7449 19.3572C67.7449 19.9145 68.1169 20.2396 68.7215 20.2396C69.1866 20.2396 69.6052 20.1003 70.0703 19.8681C70.1168 19.8681 70.1633 19.8216 70.2098 19.8216C70.3028 19.8216 70.3493 19.8681 70.3959 19.9145C70.4424 19.9609 70.5354 20.1003 70.5354 20.1003C70.6284 20.2396 70.7214 20.4253 70.7214 20.5646C70.7214 20.7968 70.5819 21.029 70.3959 21.1219C69.8843 21.4005 69.2796 21.5399 68.6285 21.5399C67.8844 21.5399 67.2798 21.3541 66.8147 20.9826C66.3496 20.5646 66.0706 20.0074 66.0706 19.3108V17.4997C66.0706 16.0601 67.0007 15.1777 68.582 15.1777C70.1168 15.1777 71.0005 16.0136 71.0005 17.4997V18.6142C71.0005 18.7535 70.8609 18.8928 70.7214 18.8928H67.7914V18.9393ZM67.7449 17.9176H69.5122V17.4532C69.5122 16.896 69.1866 16.5245 68.6285 16.5245C68.0704 16.5245 67.7449 16.8495 67.7449 17.4532V17.9176ZM40.3979 21.447H41.049C41.1885 21.447 41.3281 21.3077 41.3281 21.1683V17.7319C41.3281 16.153 40.4909 15.2242 39.0956 15.2242C38.6771 15.2242 38.212 15.3171 37.9329 15.4099V13.6917C37.9329 13.3202 37.6074 12.9951 37.2353 12.9951H36.5842C36.4447 12.9951 36.3051 13.1344 36.3051 13.2738V21.1683C36.3051 21.3077 36.4447 21.447 36.5842 21.447H37.6539C37.7934 21.447 37.9329 21.3077 37.9329 21.1683V16.8031C38.1655 16.7102 38.491 16.6638 38.7236 16.6638C39.4212 16.6638 39.7003 16.9889 39.7003 17.7783V20.7968C39.7468 21.1219 40.0258 21.447 40.3979 21.447ZM47.4207 17.5461V19.2644C47.4207 20.704 46.444 21.5863 44.8162 21.5863C43.2349 21.5863 42.2117 20.704 42.2117 19.2644V17.5461C42.2117 16.1065 43.1884 15.2242 44.8162 15.2242C46.444 15.2242 47.4207 16.1065 47.4207 17.5461ZM45.7929 17.5461C45.7929 16.9889 45.4673 16.6173 44.8627 16.6173C44.2581 16.6173 43.9325 16.9424 43.9325 17.5461V19.2644C43.9325 19.8216 44.2581 20.1467 44.8627 20.1467C45.4673 20.1467 45.7929 19.8216 45.7929 19.2644V17.5461ZM35.4215 16.7567C35.4215 18.2427 34.3053 19.2644 32.817 19.2644C32.4449 19.2644 32.1194 19.2179 31.7938 19.0786V21.1683C31.7938 21.3077 31.6543 21.447 31.5148 21.447H30.4451C30.3055 21.447 30.166 21.3077 30.166 21.1683V13.7846C30.166 13.5988 30.3055 13.4595 30.4451 13.4131C31.1427 13.1809 31.8403 13.0416 32.5845 13.0416C34.2588 13.0416 35.4215 14.0632 35.4215 15.6421V16.7567ZM33.7472 15.5493C33.7472 14.8062 33.2356 14.4347 32.5379 14.4347C32.1194 14.4347 31.8403 14.574 31.8403 14.574V17.639C32.1194 17.7783 32.2589 17.8248 32.5845 17.8248C33.2821 17.8248 33.7937 17.4068 33.7937 16.7102V15.5493H33.7472ZM65.466 16.7567C65.466 18.2427 64.3498 19.2644 62.8615 19.2644C62.4894 19.2644 62.1639 19.2179 61.8383 19.0786V21.1683C61.8383 21.3077 61.6988 21.447 61.5592 21.447H60.4895C60.35 21.447 60.2105 21.3077 60.2105 21.1683V13.7846C60.2105 13.5988 60.35 13.4595 60.4895 13.4131C61.1872 13.1809 61.8848 13.0416 62.6289 13.0416C64.3032 13.0416 65.466 14.0632 65.466 15.6421V16.7567ZM63.7916 15.5493C63.7916 14.8062 63.2801 14.4347 62.5824 14.4347C62.1639 14.4347 61.8848 14.574 61.8848 14.574V17.639C62.1639 17.7783 62.3034 17.8248 62.6289 17.8248C63.3266 17.8248 63.8382 17.4068 63.8382 16.7102V15.5493H63.7916Z" fill="#5F259F"/>
<path d="M22.0003 13.9815C22.0003 13.6741 21.7258 13.4107 21.4056 13.4107H20.3075L17.7912 10.645C17.5625 10.3816 17.1965 10.2938 16.8305 10.3816L15.9612 10.645C15.8239 10.6889 15.7782 10.8645 15.8697 10.9523L18.6148 13.4546H14.4514C14.3142 13.4546 14.2227 13.5424 14.2227 13.6741V14.1132C14.2227 14.4205 14.4972 14.6839 14.8174 14.6839H15.4579V16.7911C15.4579 18.3716 16.3272 19.2935 17.7912 19.2935C18.2488 19.2935 18.6148 19.2496 19.0723 19.074V20.4788C19.0723 20.8739 19.3925 21.1813 19.8043 21.1813H20.4448C20.5821 21.1813 20.7193 21.0496 20.7193 20.9178V14.64H21.7716C21.9088 14.64 22.0003 14.5522 22.0003 14.4205V13.9815ZM19.0723 17.757C18.7978 17.8887 18.4318 17.9326 18.1572 17.9326C17.4252 17.9326 17.0592 17.5814 17.0592 16.7911V14.6839H19.0723V17.757Z" fill="white"/>
</svg>
