<svg width="79" height="32" viewBox="0 0 79 32" fill="none" xmlns="http://www.w3.org/2000/svg">
<rect width="79" height="32" rx="4" fill="white"/>
<path d="M31.3603 12.0679H28.0511C27.8246 12.0679 27.6321 12.2224 27.5967 12.4324L26.2584 20.4038C26.2317 20.5611 26.3614 20.7029 26.5313 20.7029H28.1111C28.3376 20.7029 28.5301 20.5483 28.5655 20.3379L28.9264 18.1879C28.9613 17.9774 29.1543 17.8229 29.3803 17.8229H30.4279C32.6077 17.8229 33.8658 16.832 34.1943 14.8683C34.3424 14.0092 34.2006 13.3342 33.7724 12.8615C33.3021 12.3424 32.4679 12.0679 31.3603 12.0679ZM31.7421 14.9792C31.5611 16.0947 30.6538 16.0947 29.7766 16.0947H29.2772L29.6276 14.0115C29.6484 13.8856 29.7645 13.7929 29.9 13.7929H30.1288C30.7264 13.7929 31.2901 13.7929 31.5814 14.1129C31.7551 14.3038 31.8084 14.5874 31.7421 14.9792Z" fill="#253B80"/>
<path d="M41.252 14.9432H39.6673C39.5323 14.9432 39.4157 15.0359 39.3949 15.1619L39.3247 15.5782L39.2139 15.4273C38.8708 14.9596 38.1058 14.8032 37.3423 14.8032C35.5912 14.8032 34.0955 16.0491 33.8042 17.7969C33.6528 18.6687 33.8681 19.5023 34.3946 20.0837C34.8775 20.6182 35.5684 20.841 36.3905 20.841C37.8015 20.841 38.5839 19.9887 38.5839 19.9887L38.5133 20.4023C38.4867 20.5605 38.6163 20.7023 38.7852 20.7023H40.2126C40.4396 20.7023 40.6312 20.5478 40.667 20.3373L41.5234 15.2423C41.5505 15.0855 41.4213 14.9432 41.252 14.9432ZM39.0431 17.8405C38.8902 18.691 38.1717 19.2619 37.2552 19.2619C36.795 19.2619 36.4273 19.1232 36.1912 18.8605C35.957 18.5996 35.8679 18.2282 35.9425 17.8146C36.0852 16.9714 36.8159 16.3819 37.7183 16.3819C38.1683 16.3819 38.5341 16.5223 38.775 16.7873C39.0165 17.055 39.1123 17.4287 39.0431 17.8405Z" fill="#253B80"/>
<path d="M49.6918 14.9434H48.0994C47.9475 14.9434 47.8047 15.0143 47.7186 15.1329L45.5223 18.172L44.5913 15.2515C44.5328 15.0688 44.3533 14.9434 44.15 14.9434H42.5852C42.395 14.9434 42.2629 15.1179 42.3234 15.2861L44.0774 20.1215L42.4284 22.3084C42.2987 22.4806 42.4294 22.7175 42.6534 22.7175H44.2439C44.3949 22.7175 44.5362 22.6484 44.6218 22.532L49.9183 15.3502C50.045 15.1784 49.9149 14.9434 49.6918 14.9434Z" fill="#253B80"/>
<path d="M54.9638 12.0679H51.6541C51.4282 12.0679 51.2356 12.2224 51.2003 12.4324L49.8619 20.4038C49.8353 20.5611 49.9649 20.7029 50.1338 20.7029H51.8322C51.9899 20.7029 52.1249 20.5947 52.1496 20.4474L52.5295 18.1879C52.5643 17.9774 52.7574 17.8229 52.9833 17.8229H54.0304C56.2107 17.8229 57.4683 16.832 57.7974 14.8683C57.9459 14.0092 57.8032 13.3342 57.3749 12.8615C56.9051 12.3424 56.0714 12.0679 54.9638 12.0679ZM55.3456 14.9792C55.1651 16.0947 54.2578 16.0947 53.3801 16.0947H52.8812L53.232 14.0115C53.2528 13.8856 53.368 13.7929 53.504 13.7929H53.7328C54.3299 13.7929 54.8941 13.7929 55.1854 14.1129C55.3591 14.3038 55.4119 14.5874 55.3456 14.9792Z" fill="#179BD7"/>
<path d="M64.8554 14.9432H63.2717C63.1357 14.9432 63.0201 15.0359 62.9997 15.1619L62.9296 15.5782L62.8183 15.4273C62.4752 14.9596 61.7107 14.8032 60.9472 14.8032C59.196 14.8032 57.7009 16.0491 57.4096 17.7969C57.2586 18.6687 57.473 19.5023 57.9994 20.0837C58.4833 20.6182 59.1733 20.841 59.9954 20.841C61.4063 20.841 62.1888 19.9887 62.1888 19.9887L62.1181 20.4023C62.0915 20.5605 62.2212 20.7023 62.391 20.7023H63.818C64.0439 20.7023 64.2365 20.5478 64.2718 20.3373L65.1288 15.2423C65.1549 15.0855 65.0252 14.9432 64.8554 14.9432ZM62.6465 17.8405C62.4946 18.691 61.7751 19.2619 60.8586 19.2619C60.3994 19.2619 60.0307 19.1232 59.7946 18.8605C59.5604 18.5996 59.4723 18.2282 59.5459 17.8146C59.6896 16.9714 60.4193 16.3819 61.3217 16.3819C61.7717 16.3819 62.1375 16.5223 62.3784 16.7873C62.6209 17.055 62.7167 17.4287 62.6465 17.8405Z" fill="#179BD7"/>
<path d="M66.723 12.2865L65.3648 20.4037C65.3382 20.561 65.4679 20.7028 65.6367 20.7028H67.0022C67.2292 20.7028 67.4217 20.5483 67.4566 20.3378L68.7959 12.3669C68.8225 12.2097 68.6929 12.0674 68.524 12.0674H66.995C66.86 12.0678 66.7438 12.1606 66.723 12.2865Z" fill="#179BD7"/>
<path d="M12.5161 22.2517L12.7692 20.7417L12.2054 20.7294H9.51367L11.3843 9.58715C11.3901 9.55351 11.409 9.52215 11.4366 9.49988C11.4642 9.4776 11.4995 9.46533 11.5363 9.46533H16.075C17.5817 9.46533 18.6216 9.75988 19.1645 10.3412C19.419 10.614 19.5811 10.899 19.6595 11.2126C19.7417 11.5417 19.7432 11.9349 19.6629 12.4144L19.6571 12.4494V12.7567L19.9116 12.8921C20.1259 12.999 20.2963 13.1212 20.4269 13.2612C20.6446 13.4944 20.7854 13.7908 20.845 14.1421C20.9064 14.5035 20.8861 14.9335 20.7854 15.4203C20.6693 15.9803 20.4816 16.4681 20.228 16.8671C19.9948 17.2349 19.6977 17.5399 19.345 17.7762C19.0082 18.0008 18.608 18.1712 18.1556 18.2803C17.7172 18.3876 17.2174 18.4417 16.6692 18.4417H16.3159C16.0633 18.4417 15.818 18.5271 15.6254 18.6803C15.4324 18.8367 15.3046 19.0503 15.2654 19.284L15.2388 19.4199L14.7917 22.0812L14.7714 22.179C14.7661 22.2099 14.7569 22.2253 14.7433 22.2358C14.7313 22.2453 14.7138 22.2517 14.6969 22.2517H12.5161Z" fill="#253B80"/>
<path d="M20.152 12.4849C20.1385 12.5662 20.123 12.6494 20.1056 12.7349C19.507 15.6217 17.4593 16.619 14.844 16.619H13.5124C13.1925 16.619 12.923 16.8371 12.8732 17.1335L12.1914 21.1953L11.9983 22.3467C11.9659 22.5412 12.1256 22.7167 12.3346 22.7167H14.6964C14.9761 22.7167 15.2137 22.5258 15.2577 22.2667L15.2809 22.154L15.7256 19.503L15.7541 19.3576C15.7977 19.0976 16.0358 18.9067 16.3154 18.9067H16.6687C18.9569 18.9067 20.7482 18.034 21.2717 15.5085C21.4904 14.4535 21.3772 13.5726 20.7985 12.953C20.6233 12.7662 20.4061 12.6112 20.152 12.4849Z" fill="#179BD7"/>
<path d="M19.5258 12.2506C19.4343 12.2256 19.34 12.2029 19.2432 12.1825C19.146 12.1625 19.0463 12.1447 18.9437 12.1293C18.5847 12.0747 18.1913 12.0488 17.7698 12.0488H14.2124C14.1248 12.0488 14.0416 12.0675 13.9671 12.1011C13.803 12.1752 13.6811 12.3211 13.6516 12.4997L12.8948 17.0025L12.873 17.1338C12.9229 16.8375 13.1924 16.6193 13.5122 16.6193H14.8439C17.4592 16.6193 19.5069 15.6216 20.1055 12.7352C20.1234 12.6497 20.1384 12.5666 20.1519 12.4852C20.0005 12.4097 19.8364 12.3452 19.6598 12.2902C19.6163 12.2766 19.5713 12.2634 19.5258 12.2506Z" fill="#222D65"/>
<path d="M13.6519 12.4995C13.6814 12.3209 13.8034 12.175 13.9674 12.1014C14.0424 12.0677 14.1252 12.0491 14.2127 12.0491H17.7702C18.1916 12.0491 18.585 12.075 18.944 12.1295C19.0466 12.145 19.1463 12.1627 19.2435 12.1827C19.3403 12.2032 19.4347 12.2259 19.5261 12.2509C19.5716 12.2636 19.6166 12.2768 19.6606 12.29C19.8373 12.345 20.0013 12.41 20.1527 12.485C20.3308 11.4182 20.1513 10.6918 19.5373 10.0341C18.8603 9.31 17.6385 9 16.0752 9H11.5364C11.2171 9 10.9447 9.21818 10.8953 9.515L9.00483 20.7718C8.96758 20.9945 9.15048 21.1955 9.38951 21.1955H12.1916L12.8952 17.0023L13.6519 12.4995Z" fill="#253B80"/>
</svg>
