<svg width="79" height="32" viewBox="0 0 79 32" fill="none" xmlns="http://www.w3.org/2000/svg">
<rect width="79" height="32" rx="4" fill="white"/>
<g clip-path="url(#clip0)">
<path d="M37.8645 16.305V21.2882H36.3135V8.98178H40.4271C40.9181 8.97133 41.4063 9.06009 41.8635 9.24295C42.3206 9.42581 42.7378 9.69914 43.0908 10.0472C43.4473 10.3741 43.7311 10.775 43.923 11.223C44.115 11.6709 44.2106 12.1556 44.2035 12.6443C44.2137 13.1357 44.1195 13.6236 43.9275 14.0744C43.7354 14.5252 43.45 14.9284 43.0908 15.2563C42.3715 15.9554 41.4836 16.3046 40.4271 16.304H37.8645V16.305ZM37.8645 10.4969V14.7928H40.4656C40.7508 14.8014 41.0345 14.7493 41.2988 14.6397C41.563 14.5301 41.802 14.3656 42.0002 14.1565C42.1975 13.961 42.3543 13.7273 42.4614 13.469C42.5684 13.2107 42.6236 12.9331 42.6236 12.6527C42.6236 12.3723 42.5684 12.0947 42.4614 11.8364C42.3543 11.5781 42.1975 11.3443 42.0002 11.1489C41.8044 10.9354 41.5664 10.7668 41.3018 10.6542C41.0372 10.5417 40.7522 10.4877 40.4656 10.4959H37.8645V10.4969Z" fill="#5F6368"/>
<path d="M47.7782 12.5933C48.9246 12.5933 49.8295 12.9055 50.4929 13.53C51.1564 14.1545 51.4878 15.0108 51.4871 16.0987V21.2882H50.0035V20.1197H49.9361C49.2939 21.082 48.4397 21.5631 47.3735 21.5631C46.4635 21.5631 45.7021 21.2882 45.0894 20.7383C44.7954 20.4859 44.5603 20.1699 44.4013 19.8131C44.2423 19.4564 44.1634 19.068 44.1703 18.6763C44.1703 17.805 44.4934 17.1121 45.1395 16.5975C45.7856 16.083 46.6481 15.8251 47.7271 15.8238C48.6481 15.8238 49.4066 15.9956 50.0026 16.3393V15.9779C50.0043 15.7109 49.9478 15.4468 49.8369 15.2047C49.7261 14.9627 49.5639 14.7489 49.3619 14.5787C48.9518 14.2015 48.4172 13.9957 47.8649 14.0023C46.9985 14.0023 46.3129 14.3748 45.8081 15.1197L44.442 14.2429C45.1934 13.1431 46.3055 12.5933 47.7782 12.5933ZM45.7715 18.7106C45.7704 18.9118 45.8166 19.1104 45.906 19.2897C45.9955 19.469 46.1258 19.624 46.2859 19.7416C46.6289 20.0167 47.0547 20.1624 47.4911 20.1541C48.1456 20.1529 48.773 19.8874 49.2357 19.4157C49.7495 18.9227 50.0064 18.3444 50.0064 17.6806C49.5228 17.2878 48.8485 17.0914 47.9834 17.0914C47.3533 17.0914 46.828 17.2463 46.4073 17.5559C45.9824 17.8701 45.7715 18.2521 45.7715 18.7106Z" fill="#5F6368"/>
<path d="M60.003 12.8682L54.824 24.9998H53.2228L55.1448 20.755L51.7393 12.8682H53.4252L55.8866 18.9168H55.9203L58.3143 12.8682H60.003Z" fill="#5F6368"/>
<path d="M31.5973 15.231C31.5978 14.7492 31.5579 14.2683 31.4778 13.7935H24.9365V16.5163H28.6831C28.6064 16.9512 28.4441 17.3658 28.206 17.735C27.968 18.1042 27.659 18.4205 27.2977 18.6648V20.4322H29.5337C30.8429 19.2019 31.5973 17.3824 31.5973 15.231Z" fill="#4285F4"/>
<path d="M24.9366 22.1396C26.8084 22.1396 28.3845 21.5131 29.5338 20.433L27.2978 18.6656C26.6755 19.0956 25.874 19.3411 24.9366 19.3411C23.1274 19.3411 21.5918 18.098 21.0427 16.4229H18.7393V18.2443C19.3166 19.4152 20.2018 20.3996 21.2962 21.0874C22.3905 21.7753 23.6509 22.1395 24.9366 22.1396Z" fill="#34A853"/>
<path d="M21.042 16.4231C20.7517 15.5454 20.7517 14.5948 21.042 13.717V11.8955H18.7386C18.2529 12.8805 18 13.9677 18 15.0701C18 16.1725 18.2529 17.2596 18.7386 18.2446L21.042 16.4231Z" fill="#FBBC04"/>
<path d="M24.9366 10.7985C25.9258 10.782 26.8816 11.1629 27.5974 11.8589L29.5772 9.84108C28.3218 8.63928 26.6587 7.97947 24.9366 7.99998C23.6509 8.00004 22.3905 8.36432 21.2962 9.05217C20.2018 9.74001 19.3166 10.7243 18.7393 11.8953L21.0427 13.7167C21.5918 12.0416 23.1274 10.7985 24.9366 10.7985Z" fill="#EA4335"/>
</g>
<defs>
<clipPath id="clip0">
<rect width="42" height="17" fill="white" transform="translate(18 8)"/>
</clipPath>
</defs>
</svg>
