<svg width="79" height="32" viewBox="0 0 79 32" fill="none" xmlns="http://www.w3.org/2000/svg">
<rect width="79" height="32" rx="4" fill="white"/>
<g clip-path="url(#clip0)">
<path d="M36.0663 22.798H32.502L34.7313 9.24561H38.2954L36.0663 22.798Z" fill="#00579F"/>
<path d="M48.9879 9.57698C48.2848 9.30277 47.1697 9 45.791 9C42.2711 9 39.7924 10.8453 39.7772 13.4836C39.748 15.4301 41.5519 16.5113 42.901 17.1603C44.28 17.8235 44.7488 18.2564 44.7488 18.8475C44.7347 19.7554 43.6345 20.1739 42.6083 20.1739C41.1852 20.1739 40.4228 19.9582 39.264 19.4531L38.7947 19.2365L38.2959 22.2787C39.1319 22.6532 40.672 22.9854 42.2711 23C46.011 23 48.4458 21.1832 48.4747 18.3717C48.4889 16.829 47.5364 15.6468 45.4828 14.6809C44.2362 14.0608 43.4727 13.6427 43.4727 13.0082C43.4873 12.4314 44.1184 11.8406 45.5257 11.8406C46.6844 11.8117 47.5358 12.0855 48.1807 12.3595L48.5031 12.5034L48.9879 9.57698Z" fill="#00579F"/>
<path d="M53.7245 17.9969C54.0181 17.2183 55.1476 14.205 55.1476 14.205C55.1328 14.2339 55.4405 13.4121 55.6165 12.9075L55.8656 14.0753C55.8656 14.0753 56.5406 17.3193 56.6872 17.9969C56.1301 17.9969 54.4285 17.9969 53.7245 17.9969ZM58.1242 9.24561H55.3672C54.517 9.24561 53.8711 9.4905 53.5043 10.3701L48.21 22.7978H51.9499C51.9499 22.7978 52.5656 21.1251 52.6979 20.7649C53.1082 20.7649 56.7464 20.7649 57.2742 20.7649C57.3765 21.2407 57.6995 22.7978 57.6995 22.7978H60.9997L58.1242 9.24561Z" fill="#00579F"/>
<path d="M29.5256 9.24561L26.0349 18.487L25.6535 16.6128C25.0081 14.4501 22.9842 12.1004 20.7256 10.9321L23.9229 22.7836H27.692L33.2945 9.24561H29.5256Z" fill="#00579F"/>
<path d="M22.7933 9.24561H17.0587L17 9.51944C21.4734 10.6441 24.436 13.355 25.6532 16.6133L24.4066 10.3848C24.2013 9.51924 23.5706 9.27416 22.7933 9.24561Z" fill="#FAA61A"/>
</g>
<defs>
<clipPath id="clip0">
<rect width="44" height="14" fill="white" transform="translate(17 9)"/>
</clipPath>
</defs>
</svg>
