<svg width="79" height="32" viewBox="0 0 79 32" fill="none" xmlns="http://www.w3.org/2000/svg">
<rect width="79" height="32" rx="4" fill="white"/>
<path d="M18.0085 21.3536H18.3254L18.0309 22.5762C17.9872 22.7576 17.9955 22.8941 18.0559 22.9852C18.1161 23.0764 18.2281 23.122 18.3918 23.122C18.5545 23.122 18.6879 23.0764 18.7921 22.9852C18.8964 22.8941 18.9705 22.7576 19.0142 22.5762L19.3085 21.3536H19.6296L19.3279 22.6064C19.2623 22.8787 19.1455 23.0824 18.9782 23.2175C18.8109 23.3529 18.5914 23.4204 18.3199 23.4204C18.0482 23.4204 17.8618 23.353 17.7604 23.2182C17.6588 23.0836 17.641 22.8796 17.7068 22.6064L18.0085 21.3536Z" fill="#696A6A"/>
<path d="M19.5869 23.3672L20.091 21.2743L21.0488 22.505C21.0745 22.5397 21.1003 22.5769 21.1258 22.6163C21.1513 22.6558 21.1774 22.7001 21.2042 22.7497L21.5404 21.354H21.8371L21.3334 23.4453L20.3554 22.1926C20.3292 22.1588 20.3048 22.1231 20.2821 22.0855C20.2591 22.0479 20.2384 22.0084 20.2194 21.9672L19.8822 23.3672H19.5869Z" fill="#696A6A"/>
<path d="M21.8115 23.3672L22.2964 21.354H22.6172L22.1324 23.3672H21.8115Z" fill="#696A6A"/>
<path d="M22.5928 23.3672L23.0776 21.354H24.1794L24.1125 21.6317H23.3316L23.2107 22.1336H23.9915L23.9224 22.421H23.1415L22.9137 23.3672H22.5928Z" fill="#696A6A"/>
<path d="M24.0479 23.3672L24.5327 21.354H24.8535L24.3688 23.3672H24.0479Z" fill="#696A6A"/>
<path d="M24.8301 23.3672L25.3149 21.354H26.4167L26.3498 21.6317H25.5689L25.4473 22.1363H26.2282L26.1591 22.4238H25.3782L25.2215 23.0743H26.0023L25.9318 23.3672H24.8301Z" fill="#696A6A"/>
<path d="M26.6929 23.0714H26.9626C27.1109 23.0714 27.2246 23.0613 27.3037 23.0412C27.3827 23.021 27.4553 22.987 27.5218 22.9394C27.612 22.8745 27.6874 22.7935 27.7481 22.6967C27.8086 22.6001 27.8545 22.4874 27.8853 22.359C27.9161 22.2306 27.9246 22.1182 27.9106 22.0217C27.8966 21.9248 27.8602 21.844 27.8013 21.7788C27.757 21.7313 27.6985 21.6972 27.6255 21.6769C27.5524 21.6569 27.4334 21.6468 27.268 21.6468H27.152H27.036L26.6929 23.0714ZM26.3008 23.3672L26.7856 21.3539H27.2185C27.4999 21.3539 27.6944 21.3682 27.8022 21.3971C27.9097 21.4261 27.9986 21.4745 28.0685 21.5423C28.1613 21.6312 28.2203 21.7454 28.2457 21.8846C28.271 22.024 28.2621 22.1831 28.2191 22.3618C28.1761 22.5406 28.1084 22.699 28.0162 22.8369C27.9242 22.975 27.8102 23.0888 27.6745 23.1786C27.5719 23.2465 27.4618 23.2949 27.3449 23.3239C27.2276 23.3526 27.0528 23.3672 26.8199 23.3672H26.7335H26.3008Z" fill="#696A6A"/>
<path d="M29.7818 22.1956H29.8641C30.042 22.1956 30.1655 22.1757 30.2344 22.1363C30.3034 22.097 30.3497 22.0273 30.3737 21.9273C30.3996 21.8201 30.3862 21.7444 30.3333 21.7005C30.2805 21.6565 30.1693 21.6343 29.9994 21.6343H29.917L29.7818 22.1956ZM29.697 22.4635L29.4794 23.3672H29.1787L29.6637 21.354H30.1491C30.2929 21.354 30.3969 21.3619 30.461 21.378C30.5248 21.3939 30.5776 21.4204 30.6192 21.4571C30.6699 21.5038 30.7032 21.5668 30.7192 21.6461C30.7351 21.7255 30.7317 21.8128 30.7088 21.908C30.6857 22.0034 30.647 22.0914 30.5926 22.1722C30.5381 22.2528 30.4743 22.3161 30.4013 22.3618C30.342 22.3986 30.2767 22.4247 30.2051 22.4402C30.1333 22.4559 30.0257 22.4635 29.8819 22.4635H29.8186H29.697Z" fill="#696A6A"/>
<path d="M31.1049 22.5765H31.6551L31.5633 22.1171C31.5589 22.0879 31.5548 22.0542 31.5513 22.0161C31.5479 21.978 31.5457 21.9356 31.5442 21.8889C31.5229 21.9329 31.5015 21.9739 31.4801 22.012C31.4588 22.05 31.4381 22.085 31.4177 22.1171L31.1049 22.5765ZM31.8019 23.3672L31.7027 22.8488H30.9205L30.5664 23.3672H30.2295L31.6895 21.2743L32.1404 23.3672H31.8019Z" fill="#696A6A"/>
<path d="M32.6 23.3672L32.8217 22.4458L32.4199 21.354H32.7571L33.0065 22.0374C33.0122 22.0549 33.0191 22.0778 33.027 22.1062C33.035 22.1346 33.0428 22.1652 33.0501 22.1983C33.0702 22.1662 33.0909 22.1358 33.1116 22.1074C33.1323 22.079 33.1533 22.053 33.1744 22.0291L33.7617 21.354H34.0827L33.14 22.4458L32.9182 23.3672H32.6Z" fill="#696A6A"/>
<path d="M35.6628 22.3727C35.663 22.3571 35.6675 22.3142 35.6765 22.2435C35.6833 22.1849 35.6887 22.1362 35.6926 22.0976C35.6735 22.1436 35.6509 22.1895 35.6251 22.2352C35.5991 22.2811 35.5694 22.3278 35.5354 22.3756L34.7605 23.4482L34.5077 22.3536C34.4969 22.3086 34.4887 22.265 34.4832 22.223C34.4777 22.1808 34.4739 22.139 34.4721 22.0976C34.4611 22.1399 34.4471 22.1841 34.4301 22.2305C34.413 22.2767 34.3927 22.3252 34.3688 22.3756L33.9182 23.367H33.623L34.595 21.2684L34.8716 22.5392C34.8756 22.5593 34.8814 22.5929 34.8885 22.6396C34.8956 22.6863 34.904 22.7441 34.9137 22.8128C34.9464 22.755 34.9936 22.6818 35.0556 22.5929C35.072 22.569 35.0846 22.5507 35.0931 22.5378L35.968 21.2684L35.9399 23.367H35.6418L35.6628 22.3727Z" fill="#696A6A"/>
<path d="M36.1953 23.3672L36.6803 21.354H37.7821L37.7151 21.6317H36.9342L36.8127 22.1363H37.5935L37.5244 22.4238H36.7434L36.5868 23.0743H37.3677L37.297 23.3672H36.1953Z" fill="#696A6A"/>
<path d="M37.666 23.3672L38.1701 21.2743L39.1279 22.505C39.1536 22.5397 39.1794 22.5769 39.2049 22.6163C39.2304 22.6558 39.2565 22.7001 39.2833 22.7497L39.6195 21.354H39.9163L39.4125 23.4453L38.4345 22.1926C38.4083 22.1588 38.3839 22.1231 38.3612 22.0855C38.3382 22.0479 38.3175 22.0084 38.2985 21.9672L37.9613 23.3672H37.666Z" fill="#696A6A"/>
<path d="M40.9403 21.6317L40.5224 23.3672H40.2015L40.6193 21.6317H40.0947L40.1617 21.354H41.5291L41.4623 21.6317H40.9403Z" fill="#696A6A"/>
<path d="M41.2735 22.9643L41.5588 22.8435C41.5617 22.9332 41.5896 23.0017 41.6429 23.0489C41.6962 23.0962 41.7732 23.1198 41.8742 23.1198C41.9693 23.1198 42.0517 23.0927 42.1208 23.0386C42.19 22.9846 42.2357 22.9121 42.2575 22.8214C42.286 22.703 42.215 22.5976 42.0451 22.5051C42.0213 22.4914 42.003 22.4813 41.9904 22.4748C41.7988 22.3666 41.6773 22.2687 41.626 22.1812C41.5749 22.0936 41.5643 21.9866 41.5948 21.8602C41.6342 21.6961 41.721 21.5631 41.8547 21.4614C41.9884 21.3596 42.1438 21.3086 42.321 21.3086C42.4667 21.3086 42.5817 21.3373 42.6658 21.3946C42.75 21.452 42.798 21.5342 42.8099 21.6415L42.5274 21.7735C42.5029 21.7103 42.4707 21.664 42.4306 21.6345C42.3905 21.6052 42.3397 21.5905 42.2787 21.5905C42.1924 21.5905 42.1183 21.6136 42.0564 21.6592C41.9949 21.7052 41.9545 21.7666 41.9358 21.8437C41.9068 21.9647 41.9911 22.0773 42.1889 22.1819C42.2041 22.19 42.216 22.1966 42.2246 22.2012C42.3977 22.2927 42.5103 22.3824 42.5619 22.47C42.6136 22.5577 42.6238 22.667 42.5921 22.798C42.5462 22.9888 42.4509 23.1402 42.306 23.2525C42.1612 23.3647 41.9884 23.4209 41.7881 23.4209C41.6198 23.4209 41.4916 23.3816 41.4032 23.3026C41.3147 23.2238 41.2714 23.1111 41.2735 22.9643Z" fill="#696A6A"/>
<path d="M43.6445 23.3672L44.1294 21.354H44.4503L43.9654 23.3672H43.6445Z" fill="#696A6A"/>
<path d="M44.4268 23.3672L44.9308 21.2743L45.8887 22.505C45.9143 22.5397 45.9402 22.5769 45.9657 22.6163C45.9912 22.6558 46.0173 22.7001 46.044 22.7497L46.3803 21.354H46.677L46.1732 23.4453L45.1952 22.1926C45.169 22.1588 45.1446 22.1231 45.1218 22.0855C45.0989 22.0479 45.0781 22.0084 45.0591 21.9672L44.722 23.3672H44.4268Z" fill="#696A6A"/>
<path d="M47.7011 21.6317L47.283 23.3672H46.9622L47.38 21.6317H46.8555L46.9224 21.354H48.2898L48.223 21.6317H47.7011Z" fill="#696A6A"/>
<path d="M48.0498 23.3672L48.5347 21.354H49.6364L49.5696 21.6317H48.7888L48.6672 22.1363H49.448L49.3788 22.4238H48.5979L48.4413 23.0743H49.2222L49.1516 23.3672H48.0498Z" fill="#696A6A"/>
<path d="M50.1187 22.212H50.1768C50.3466 22.212 50.4643 22.1919 50.5298 22.1516C50.5952 22.1112 50.6405 22.0398 50.665 21.937C50.6918 21.8261 50.6808 21.7479 50.6317 21.7026C50.5831 21.657 50.4777 21.6344 50.3159 21.6344H50.2578L50.1187 22.212ZM50.0372 22.4663L49.8202 23.3672H49.5195L50.0045 21.354H50.4522C50.5834 21.354 50.6832 21.3626 50.7513 21.3801C50.8194 21.3975 50.8744 21.4263 50.9159 21.4668C50.9653 21.5152 50.9974 21.5782 51.0122 21.6552C51.0268 21.7321 51.023 21.8164 51.001 21.908C50.9622 22.0694 50.8936 22.1957 50.7952 22.287C50.6968 22.3781 50.5707 22.433 50.4171 22.4512L50.8763 23.3672H50.5134L50.0736 22.4663H50.0372Z" fill="#696A6A"/>
<path d="M51.0664 23.3672L51.5513 21.354H52.653L52.5862 21.6317H51.8053L51.6843 22.1336H52.4653L52.3961 22.421H51.6152L51.3873 23.3672H51.0664Z" fill="#696A6A"/>
<path d="M53.0258 22.5765H53.5762L53.4843 22.1171C53.4798 22.0879 53.4758 22.0542 53.4723 22.0161C53.469 21.978 53.4667 21.9356 53.4652 21.8889C53.4438 21.9329 53.4224 21.9739 53.4011 22.012C53.3798 22.05 53.359 22.085 53.3386 22.1171L53.0258 22.5765ZM53.7229 23.3672L53.6238 22.8488H52.8415L52.4874 23.3672H52.1504L53.6104 21.2743L54.0614 23.3672H53.7229Z" fill="#696A6A"/>
<path d="M56.1497 21.8432C56.0779 21.7644 55.9962 21.7052 55.9045 21.6658C55.813 21.6265 55.7114 21.6066 55.5998 21.6066C55.3841 21.6066 55.1915 21.6773 55.0223 21.8184C54.8528 21.9596 54.7412 22.1425 54.6871 22.3672C54.6348 22.5845 54.6575 22.7636 54.7552 22.9047C54.8529 23.0459 55.0021 23.1167 55.2025 23.1167C55.3195 23.1167 55.4357 23.0955 55.5515 23.0533C55.6673 23.0111 55.7841 22.9475 55.9016 22.8621L55.8125 23.2321C55.711 23.2953 55.6056 23.3426 55.4966 23.3737C55.3875 23.4048 55.2736 23.4204 55.155 23.4204C55.004 23.4204 54.8703 23.3953 54.7544 23.3448C54.6384 23.2944 54.5436 23.2203 54.4703 23.122C54.3973 23.0258 54.3505 22.9124 54.3304 22.7817C54.3101 22.6511 54.3177 22.5119 54.3532 22.3642C54.3888 22.2167 54.4482 22.0781 54.5311 21.9484C54.6139 21.8186 54.7163 21.7047 54.8378 21.6066C54.9598 21.5076 55.0902 21.4328 55.2291 21.3817C55.3681 21.331 55.5115 21.3054 55.659 21.3054C55.775 21.3054 55.8814 21.3227 55.9783 21.3572C56.0752 21.3914 56.1646 21.4434 56.2469 21.5133L56.1497 21.8432Z" fill="#696A6A"/>
<path d="M56.1816 23.3672L56.6665 21.354H57.7683L57.7013 21.6317H56.9206L56.799 22.1363H57.5798L57.5106 22.4238H56.7298L56.5731 23.0743H57.354L57.2834 23.3672H56.1816Z" fill="#696A6A"/>
<path d="M50.3282 19.5996H48.1221L51.1903 8.58569H53.3966L50.3282 19.5996Z" fill="#66686C"/>
<path d="M49.1824 8.93365C49.0294 8.72407 48.7935 8.61832 48.473 8.61832H36.3416L35.7407 10.7755H37.9481V10.7743H46.7769L46.1346 13.0795H37.3056L37.3064 13.0747H35.0999L33.2686 19.646H35.4762L36.7052 15.2354H46.6297C46.9396 15.2354 47.2314 15.1304 47.5057 14.9202C47.7795 14.7098 47.9597 14.4504 48.0461 14.1407L49.2749 9.72921C49.3646 9.4091 49.3336 9.14346 49.1824 8.93365Z" fill="#66686C"/>
<path d="M31.9835 18.9121C31.8616 19.3482 31.4621 19.6499 31.0067 19.6499H19.624C19.3138 19.6499 19.0833 19.5448 18.9317 19.3349C18.7802 19.1248 18.7477 18.8648 18.8343 18.5552L21.6117 8.6179H23.82L21.3392 17.4934H30.1723L32.653 8.6179H34.8608L31.9835 18.9121Z" fill="#66686C"/>
<path d="M57.2064 8.60648L59.9996 14.1277L54.1279 19.6475L57.2064 8.60648Z" fill="#27803B"/>
<path d="M55.248 8.60648L58.0391 14.1277L52.165 19.6475L55.248 8.60648Z" fill="#E9661C"/>
</svg>
