<svg width="79" height="32" viewBox="0 0 79 32" fill="none" xmlns="http://www.w3.org/2000/svg">
<rect width="79" height="32" rx="4" fill="white"/>
<path d="M32.1915 26.3527V25.0218C32.1994 24.9099 32.183 24.7975 32.1433 24.6923C32.1037 24.5871 32.0418 24.4914 31.9616 24.4117C31.8814 24.3319 31.7849 24.2699 31.6785 24.2298C31.5721 24.1896 31.4582 24.1723 31.3445 24.1789C31.1956 24.1693 31.0468 24.1993 30.9137 24.2656C30.7806 24.3319 30.6679 24.4322 30.5876 24.556C30.5143 24.4359 30.4095 24.3375 30.2842 24.2711C30.159 24.2048 30.0178 24.1729 29.8757 24.1789C29.7518 24.1728 29.6284 24.1986 29.5178 24.2539C29.4072 24.3091 29.3131 24.3918 29.2449 24.4939V24.2321H28.7764V26.3527H29.2494V25.1771C29.2392 25.1045 29.2454 25.0307 29.2676 24.9608C29.2898 24.8909 29.3275 24.8267 29.3779 24.7728C29.4283 24.7189 29.4902 24.6767 29.5591 24.6492C29.628 24.6217 29.7023 24.6096 29.7766 24.6137C30.0874 24.6137 30.2452 24.8133 30.2452 25.1726V26.3527H30.7182V25.1771C30.7088 25.1047 30.7155 25.0311 30.738 24.9615C30.7605 24.892 30.7982 24.8281 30.8484 24.7744C30.8987 24.7207 30.9602 24.6785 31.0288 24.6507C31.0974 24.623 31.1713 24.6103 31.2453 24.6137C31.5652 24.6137 31.7184 24.8133 31.7184 25.1726V26.3527H32.1915ZM39.1928 24.2321H38.4269V23.5889H37.9539V24.2321H37.5168V24.6536H37.9539V25.6207C37.9539 26.1132 38.1476 26.406 38.7018 26.406C38.9088 26.4066 39.1118 26.3497 39.2875 26.2418L39.1523 25.847C39.0267 25.9208 38.884 25.962 38.7378 25.9668C38.5035 25.9668 38.4269 25.8248 38.4269 25.6119V24.6536H39.1928V24.2321ZM43.1891 24.1789C43.0749 24.1756 42.9619 24.2027 42.862 24.2573C42.762 24.312 42.679 24.3922 42.6215 24.4894V24.2321H42.1574V26.3527H42.626V25.1638C42.626 24.8133 42.7791 24.6181 43.0855 24.6181C43.1858 24.6167 43.2853 24.6348 43.3784 24.6713L43.5225 24.2366C43.4155 24.1989 43.3028 24.1794 43.1891 24.1789ZM37.1474 24.4007C36.8822 24.2454 36.5772 24.1684 36.2689 24.1789C35.7237 24.1789 35.3723 24.4362 35.3723 24.8577C35.3723 25.2037 35.6336 25.4167 36.1156 25.4832L36.3364 25.5142C36.5932 25.5497 36.7149 25.6163 36.7149 25.7361C36.7149 25.9002 36.5437 25.9934 36.2238 25.9934C35.9665 26.0007 35.7142 25.9225 35.5074 25.7715L35.2867 26.1309C35.5596 26.3186 35.8865 26.415 36.2193 26.406C36.841 26.406 37.2014 26.1176 37.2014 25.7139C37.2014 25.3412 36.9176 25.146 36.4491 25.0795L36.2283 25.0484C36.0256 25.0218 35.8634 24.9819 35.8634 24.8399C35.8634 24.6847 36.0165 24.5915 36.2734 24.5915C36.5092 24.595 36.7402 24.6576 36.9447 24.7734L37.1474 24.4007ZM49.6994 24.1789C49.5852 24.1756 49.4721 24.2027 49.3722 24.2573C49.2723 24.312 49.1892 24.3922 49.1318 24.4894V24.2321H48.6677V26.3527H49.1362V25.1638C49.1362 24.8133 49.2894 24.6181 49.5958 24.6181C49.696 24.6167 49.7955 24.6348 49.8887 24.6713L50.0328 24.2366C49.9258 24.1989 49.8131 24.1794 49.6994 24.1789ZM43.6622 25.2924C43.656 25.4418 43.6816 25.5908 43.7373 25.7299C43.7931 25.8689 43.8778 25.995 43.986 26.0999C44.0943 26.2048 44.2236 26.2862 44.3657 26.3389C44.5078 26.3916 44.6595 26.4145 44.8111 26.406C45.0924 26.4199 45.3688 26.3297 45.586 26.1531L45.3607 25.7804C45.1987 25.902 45.0012 25.9689 44.7976 25.9712C44.622 25.9607 44.4571 25.8846 44.3365 25.7585C44.2159 25.6323 44.1488 25.4656 44.1488 25.2924C44.1488 25.1192 44.2159 24.9525 44.3365 24.8264C44.4571 24.7002 44.622 24.6242 44.7976 24.6137C45.0012 24.6159 45.1988 24.6828 45.3607 24.8045L45.586 24.4318C45.3688 24.2552 45.0924 24.165 44.8111 24.1789C44.6595 24.1704 44.5078 24.1933 44.3657 24.246C44.2236 24.2987 44.0943 24.3801 43.9861 24.485C43.8779 24.5899 43.7931 24.7159 43.7374 24.8549C43.6816 24.994 43.656 25.143 43.6622 25.2924ZM48.0505 25.2924V24.2321H47.5819V24.4894C47.5019 24.388 47.3984 24.3068 47.2801 24.2528C47.1617 24.1987 47.0319 24.1734 46.9016 24.1789C46.6112 24.1929 46.3375 24.3164 46.137 24.5237C45.9366 24.7309 45.8248 25.0062 45.8248 25.2924C45.8248 25.5787 45.9366 25.854 46.137 26.0612C46.3375 26.2685 46.6112 26.392 46.9016 26.406C47.0319 26.4115 47.1617 26.3861 47.2801 26.3321C47.3984 26.2781 47.5019 26.1969 47.5819 26.0954V26.3527H48.0505V25.2924ZM46.3068 25.2924C46.3141 25.1673 46.3584 25.0469 46.4343 24.9463C46.5102 24.8457 46.6143 24.7691 46.7338 24.726C46.8534 24.683 46.9831 24.6753 47.107 24.704C47.2309 24.7326 47.3436 24.7964 47.4312 24.8874C47.5188 24.9783 47.5774 25.0926 47.5998 25.2159C47.6222 25.3393 47.6075 25.4665 47.5574 25.5817C47.5073 25.6969 47.4241 25.7952 47.318 25.8644C47.2118 25.9336 47.0875 25.9707 46.9602 25.9712C46.871 25.9724 46.7824 25.9554 46.7002 25.9212C46.618 25.887 46.5439 25.8365 46.4825 25.7727C46.4211 25.7089 46.3738 25.6333 46.3436 25.5507C46.3134 25.468 46.3009 25.3801 46.3068 25.2924ZM40.6526 24.1789C40.3604 24.194 40.0855 24.32 39.8856 24.5304C39.6857 24.7408 39.5763 25.0193 39.5804 25.3074C39.5845 25.5955 39.7017 25.8708 39.9075 26.0757C40.1133 26.2805 40.3916 26.3989 40.6842 26.406C41.0056 26.4171 41.3199 26.3113 41.5672 26.1087L41.3374 25.7671C41.1595 25.9075 40.9391 25.9856 40.7112 25.9889C40.5563 26.0018 40.4025 25.9548 40.2823 25.8579C40.162 25.761 40.0848 25.6218 40.0669 25.4698H41.6663C41.6708 25.4122 41.6753 25.3545 41.6753 25.2924C41.6708 24.6314 41.2563 24.1789 40.6526 24.1789ZM40.6436 24.5915C40.7851 24.5888 40.922 24.6414 41.0241 24.7379C41.1263 24.8343 41.1855 24.9668 41.1887 25.1061H40.0714C40.0796 24.9637 40.1441 24.8302 40.251 24.734C40.3579 24.6378 40.4988 24.5867 40.6436 24.5915ZM52.3982 25.2924V23.3804H51.9296V24.4894C51.8496 24.388 51.7461 24.3068 51.6278 24.2528C51.5094 24.1987 51.3796 24.1734 51.2493 24.1789C50.9589 24.1929 50.6852 24.3163 50.4847 24.5236C50.2843 24.7309 50.1725 25.0062 50.1725 25.2924C50.1725 25.5787 50.2843 25.854 50.4847 26.0613C50.6852 26.2686 50.9589 26.392 51.2493 26.406C51.3796 26.4115 51.5094 26.3861 51.6278 26.3321C51.7461 26.2781 51.8496 26.1969 51.9296 26.0954V26.3527H52.3982V25.2924ZM53.1792 26.0454C53.2083 26.0452 53.2372 26.0509 53.264 26.062C53.2898 26.0726 53.3133 26.0879 53.3333 26.1072C53.3531 26.1264 53.3689 26.1492 53.3799 26.1743C53.3912 26.2001 53.397 26.228 53.397 26.2561C53.397 26.2842 53.3912 26.312 53.3799 26.3378C53.3688 26.3629 53.353 26.3856 53.3333 26.4047C53.3132 26.424 53.2897 26.4394 53.264 26.4502C53.2372 26.4615 53.2084 26.4672 53.1792 26.467C53.1364 26.4674 53.0943 26.4554 53.0584 26.4324C53.0224 26.4094 52.9941 26.3766 52.977 26.3378C52.9658 26.312 52.96 26.2842 52.96 26.2561C52.96 26.228 52.9658 26.2002 52.977 26.1743C52.988 26.1492 53.0038 26.1264 53.0235 26.1072C53.0434 26.0878 53.067 26.0724 53.093 26.062C53.1203 26.0508 53.1496 26.0452 53.1792 26.0454ZM53.1792 26.4205C53.2014 26.4207 53.2234 26.4163 53.2438 26.4076C53.2634 26.3992 53.2812 26.3873 53.2962 26.3724C53.3273 26.3415 53.3448 26.2997 53.3448 26.2562C53.3448 26.2126 53.3273 26.1709 53.2962 26.1399C53.2812 26.1251 53.2634 26.1133 53.2438 26.1051C53.2234 26.0966 53.2014 26.0922 53.1792 26.0924C53.1566 26.0923 53.1343 26.0966 53.1134 26.1051C53.0935 26.1132 53.0754 26.125 53.0602 26.1399C53.029 26.1709 53.0116 26.2126 53.0116 26.2562C53.0116 26.2997 53.029 26.3415 53.0602 26.3724C53.0755 26.3874 53.0935 26.3993 53.1134 26.4076C53.1342 26.4162 53.1566 26.4206 53.1792 26.4205ZM53.1918 26.1575C53.2129 26.1561 53.2338 26.1621 53.2509 26.1743C53.2577 26.1798 53.2631 26.1868 53.2667 26.1948C53.2703 26.2027 53.272 26.2114 53.2716 26.22C53.2718 26.2275 53.2705 26.2349 53.2676 26.2418C53.2648 26.2487 53.2605 26.2549 53.2551 26.26C53.242 26.2714 53.2255 26.2783 53.2081 26.2794L53.2732 26.3533H53.2223L53.162 26.2799H53.1425V26.3533H53.1V26.1575H53.1918ZM53.1425 26.1942V26.2464H53.1913C53.2007 26.2468 53.21 26.2446 53.2181 26.2399C53.2214 26.2377 53.224 26.2348 53.2258 26.2313C53.2275 26.2278 53.2283 26.2239 53.228 26.22C53.2283 26.2162 53.2274 26.2124 53.2257 26.209C53.224 26.2056 53.2213 26.2027 53.2181 26.2006C53.21 26.196 53.2007 26.1938 53.1913 26.1942H53.1425ZM50.6546 25.2924C50.6619 25.1673 50.7062 25.047 50.782 24.9463C50.8579 24.8457 50.9621 24.7691 51.0816 24.7261C51.2011 24.683 51.3309 24.6754 51.4548 24.704C51.5787 24.7327 51.6913 24.7965 51.7789 24.8874C51.8665 24.9784 51.925 25.0926 51.9475 25.216C51.9699 25.3394 51.9551 25.4665 51.9051 25.5817C51.855 25.697 51.7717 25.7952 51.6656 25.8644C51.5595 25.9336 51.4351 25.9708 51.3078 25.9712C51.2186 25.9724 51.1301 25.9553 51.0479 25.9212C50.9657 25.887 50.8916 25.8365 50.8302 25.7727C50.7689 25.7089 50.7216 25.6333 50.6913 25.5506C50.6611 25.468 50.6486 25.3801 50.6546 25.2924ZM34.8316 25.2924V24.2321H34.3631V24.4894C34.2831 24.388 34.1796 24.3068 34.0612 24.2528C33.9429 24.1987 33.8131 24.1734 33.6827 24.1789C33.3924 24.1929 33.1187 24.3164 32.9182 24.5237C32.7178 24.7309 32.606 25.0062 32.606 25.2924C32.606 25.5787 32.7178 25.854 32.9182 26.0612C33.1187 26.2685 33.3924 26.392 33.6827 26.406C33.8131 26.4115 33.9429 26.3861 34.0612 26.3321C34.1796 26.2781 34.2831 26.1969 34.3631 26.0954V26.3527H34.8316V25.2924ZM33.0881 25.2924C33.0953 25.1673 33.1396 25.047 33.2155 24.9463C33.2914 24.8457 33.3955 24.7691 33.5151 24.7261C33.6346 24.683 33.7643 24.6754 33.8882 24.704C34.0121 24.7327 34.1248 24.7965 34.2124 24.8874C34.2999 24.9784 34.3585 25.0926 34.3809 25.216C34.4034 25.3394 34.3886 25.4665 34.3385 25.5817C34.2885 25.697 34.2052 25.7952 34.0991 25.8645C33.993 25.9337 33.8686 25.9708 33.7413 25.9712C33.6521 25.9724 33.5636 25.9553 33.4814 25.9212C33.3992 25.887 33.3251 25.8365 33.2637 25.7727C33.2023 25.7089 33.155 25.6333 33.1248 25.5506C33.0946 25.468 33.0821 25.3801 33.0881 25.2924Z" fill="#231F20"/>
<path d="M44.0872 8.06982H36.9902V20.628H44.0872V8.06982Z" fill="#FF5F00"/>
<path d="M37.4393 14.3484C37.4382 13.139 37.7165 11.9452 38.2532 10.8573C38.7899 9.76943 39.5709 8.81606 40.5371 8.06936C39.3406 7.14327 37.9037 6.56736 36.3905 6.40743C34.8773 6.2475 33.3489 6.51002 31.98 7.16498C30.6112 7.81994 29.4571 8.84091 28.6497 10.1112C27.8422 11.3815 27.4141 12.8498 27.4141 14.3484C27.4141 15.847 27.8422 17.3154 28.6497 18.5857C29.4571 19.856 30.6112 20.8769 31.98 21.5319C33.3489 22.1869 34.8773 22.4494 36.3905 22.2894C37.9037 22.1295 39.3406 21.5536 40.5371 20.6275C39.5709 19.8808 38.7899 18.9274 38.2532 17.8396C37.7165 16.7517 37.4382 15.5579 37.4393 14.3484Z" fill="#EB001B"/>
<path d="M53.6608 14.3484C53.6608 15.847 53.2327 17.3154 52.4253 18.5856C51.6179 19.8559 50.4639 20.8769 49.095 21.5319C47.7262 22.1868 46.1979 22.4494 44.6847 22.2894C43.1715 22.1295 41.7346 21.5536 40.5381 20.6275C41.5034 19.8801 42.2839 18.9265 42.8205 17.8388C43.3571 16.7512 43.6359 15.5577 43.6359 14.3484C43.6359 13.1392 43.3571 11.9457 42.8205 10.858C42.2839 9.77034 41.5034 8.81681 40.5381 8.06936C41.7346 7.14327 43.1715 6.56735 44.6847 6.40743C46.1979 6.2475 47.7262 6.51003 49.095 7.165C50.4639 7.81996 51.6179 8.84094 52.4253 10.1112C53.2327 11.3815 53.6608 12.8499 53.6608 14.3484Z" fill="#F79E1B"/>
<path d="M52.8835 19.2992V19.0421H52.9888V18.9898H52.7207V19.0421H52.826V19.2992H52.8835ZM53.4041 19.2992V18.9893H53.3219L53.2274 19.2025L53.1328 18.9893H53.0506V19.2992H53.1086V19.0654L53.1973 19.267H53.2575L53.3461 19.0649V19.2992H53.4041Z" fill="#F79E1B"/>
</svg>
