<svg width="36" height="36" viewBox="0 0 36 36" fill="none" xmlns="http://www.w3.org/2000/svg">
<g clip-path="url(#clip0_44_879)">
<path d="M35.6178 18.405C35.6178 17.22 35.5128 16.095 35.3328 15H18.3828V21.765H28.0878C27.6528 23.985 26.3778 25.86 24.4878 27.135V31.635H30.2778C33.6678 28.5 35.6178 23.88 35.6178 18.405Z" fill="#4285F4"/>
<path d="M18.3834 36.0001C23.2434 36.0001 27.3084 34.3801 30.2784 31.6351L24.4884 27.1351C22.8684 28.2151 20.8134 28.8751 18.3834 28.8751C13.6884 28.8751 9.71336 25.7101 8.28836 21.4351H2.31836V26.0701C5.27336 31.9501 11.3484 36.0001 18.3834 36.0001Z" fill="#34A853"/>
<path d="M8.28781 21.4352C7.91281 20.3552 7.71781 19.2002 7.71781 18.0002C7.71781 16.8002 7.92781 15.6452 8.28781 14.5652V9.93018H2.31781C1.08781 12.3602 0.382812 15.0902 0.382812 18.0002C0.382812 20.9102 1.08781 23.6402 2.31781 26.0702L8.28781 21.4352Z" fill="#FBBC05"/>
<path d="M18.3834 7.125C21.0384 7.125 23.4084 8.04 25.2834 9.825L30.4134 4.695C27.3084 1.785 23.2434 0 18.3834 0C11.3484 0 5.27336 4.05 2.31836 9.93L8.28836 14.565C9.71336 10.29 13.6884 7.125 18.3834 7.125Z" fill="#EA4335"/>
</g>
<defs>
<clipPath id="clip0_44_879">
<rect width="36" height="36" fill="white"/>
</clipPath>
</defs>
</svg>
