<svg width="32" height="32" viewBox="0 0 32 32" fill="none" xmlns="http://www.w3.org/2000/svg">
<path d="M24.0976 23.7076L22.1108 25.6944C20.3046 27.5006 17.3244 27.5006 15.5183 25.6944L8.92575 19.1922C7.11959 17.386 7.11959 14.4058 8.92575 12.5997L15.5183 6.00717C17.3244 4.201 20.3046 4.201 22.1108 6.00717L24.0976 7.99395C24.82 8.71642 25.9037 8.71642 26.6262 7.99395C27.3487 7.27149 27.3487 6.18779 26.6262 5.46532L24.0976 2.93669C21.2077 0.0468205 16.4213 0.0468205 13.5315 2.93669L5.94558 10.5226C2.96541 13.5028 2.96541 18.1988 5.94558 21.179L13.5315 28.7649C16.5117 31.745 21.2077 31.745 24.1879 28.7649L26.7165 26.2362C27.439 25.5138 27.439 24.4301 26.7165 23.7076C25.994 22.9851 24.82 22.9851 24.0976 23.7076Z" fill="#1976D2"/>
<path d="M19.4013 8.89703L12.2669 16.0314C11.996 16.3023 11.5444 16.3023 11.2735 16.0314C11.0026 15.7605 11.0026 15.3089 11.2735 15.038L18.4079 7.90363C18.6788 7.63271 19.1303 7.63271 19.4013 7.90363C19.6722 8.17456 19.6722 8.6261 19.4013 8.89703Z" fill="#1976D2"/>
<path d="M22.9237 12.4192L15.7894 19.5536C15.5184 19.8245 15.0669 19.8245 14.796 19.5536C14.525 19.2827 14.525 18.8311 14.796 18.5602L21.9303 11.4258C22.2012 11.1549 22.6528 11.1549 22.9237 11.4258C23.1946 11.7871 23.1946 12.1483 22.9237 12.4192Z" fill="#1976D2"/>
<path d="M22.9237 19.5535L19.3113 23.1659C19.0404 23.4368 18.5889 23.4368 18.3179 23.1659C18.047 22.8949 18.047 22.4434 18.3179 22.1725L21.9303 18.5601C22.2012 18.2892 22.6527 18.2892 22.9237 18.5601C23.1946 18.8311 23.1946 19.2826 22.9237 19.5535Z" fill="#1976D2"/>
</svg>
