<svg width="16" height="16" viewBox="0 0 16 16" fill="none" xmlns="http://www.w3.org/2000/svg">
<path d="M4.26875 4.33727C3.9549 4.42598 3.6675 4.5901 3.4316 4.81532C3.1957 5.04054 3.01845 5.32004 2.91531 5.62945L0 14.3751L0.459062 14.8341L5.15 10.1432C5.05656 9.94758 5 9.73133 5 9.50008C5 8.67164 5.67156 8.00008 6.5 8.00008C7.32844 8.00008 8 8.67164 8 9.50008C8 10.3285 7.32844 11.0001 6.5 11.0001C6.26875 11.0001 6.0525 10.9435 5.85687 10.8501L1.16594 15.541L1.625 16.0001L10.3706 13.0848C10.68 12.9816 10.9595 12.8044 11.1848 12.5685C11.41 12.3326 11.5741 12.0452 11.6628 11.7313L13 7.00008L9 3.00008L4.26875 4.33727ZM15.5606 2.31789L13.6822 0.439453C13.0962 -0.146484 12.1459 -0.146484 11.56 0.439453L9.79281 2.20664L13.7934 6.20727L15.5606 4.44008C16.1466 3.85414 16.1466 2.90414 15.5606 2.31789Z" fill="#233952"/>
</svg>
