<svg width="22" height="23" viewBox="0 0 22 23" fill="none" xmlns="http://www.w3.org/2000/svg">
<path d="M19.0198 11.7787L20.0318 10.0297C20.1534 9.81926 20.1865 9.56914 20.1238 9.33433C20.061 9.09952 19.9076 8.89924 19.6972 8.77752L17.9464 7.76552V5.74885C17.9464 5.50574 17.8498 5.27258 17.6779 5.10067C17.506 4.92877 17.2728 4.83219 17.0297 4.83219H15.014L14.0029 3.08227C13.8808 2.87228 13.6809 2.71882 13.4465 2.6551C13.3302 2.62359 13.2088 2.61546 13.0894 2.63119C12.97 2.64693 12.8549 2.68621 12.7507 2.74677L10.9999 3.75877L9.24906 2.74585C9.03853 2.6243 8.78832 2.59136 8.5535 2.65428C8.31867 2.7172 8.11846 2.87082 7.9969 3.08136L6.9849 4.83219H4.96915C4.72603 4.83219 4.49288 4.92877 4.32097 5.10067C4.14906 5.27258 4.05248 5.50574 4.05248 5.74885V7.76461L2.30165 8.77661C2.19718 8.8367 2.10561 8.91684 2.03221 9.01243C1.9588 9.10802 1.90501 9.21717 1.87392 9.33361C1.84283 9.45005 1.83505 9.57149 1.85104 9.69094C1.86702 9.8104 1.90645 9.92552 1.96706 10.0297L2.97906 11.7787L1.96706 13.5277C1.84605 13.7383 1.81322 13.9882 1.87573 14.223C1.93823 14.4577 2.091 14.6582 2.30073 14.7808L4.05156 15.7928V17.8085C4.05156 18.0516 4.14814 18.2848 4.32005 18.4567C4.49196 18.6286 4.72512 18.7252 4.96823 18.7252H6.9849L7.9969 20.476C8.07805 20.6147 8.19392 20.73 8.33311 20.8103C8.4723 20.8907 8.63001 20.9334 8.79073 20.9344C8.95023 20.9344 9.10881 20.8922 9.24998 20.8106L10.999 19.7986L12.7498 20.8106C12.9603 20.932 13.2103 20.9649 13.4451 20.9022C13.6798 20.8395 13.8801 20.6862 14.002 20.476L15.0131 18.7252H17.0288C17.2719 18.7252 17.5051 18.6286 17.677 18.4567C17.8489 18.2848 17.9455 18.0516 17.9455 17.8085V15.7928L19.6963 14.7808C19.8006 14.7205 19.892 14.6403 19.9653 14.5447C20.0385 14.4491 20.0922 14.3399 20.1233 14.2236C20.1544 14.1072 20.1622 13.9858 20.1464 13.8664C20.1305 13.747 20.0913 13.6319 20.0309 13.5277L19.0198 11.7787ZM8.70731 7.18619C9.07211 7.18631 9.42191 7.33134 9.67978 7.58937C9.93764 7.84741 10.0824 8.19731 10.0823 8.56211C10.0822 8.9269 9.93716 9.2767 9.67913 9.53457C9.42109 9.79243 9.07119 9.93723 8.7064 9.93711C8.3416 9.93698 7.9918 9.79195 7.73394 9.53392C7.47607 9.27588 7.33128 8.92598 7.3314 8.56119C7.33152 8.19639 7.47655 7.84659 7.73458 7.58873C7.99262 7.33086 8.34252 7.18607 8.70731 7.18619ZM8.98231 15.9862L7.51565 14.8871L13.0156 7.55377L14.4823 8.65285L8.98231 15.9862ZM13.2906 16.3529C13.11 16.3528 12.9312 16.3172 12.7643 16.248C12.5975 16.1788 12.4459 16.0774 12.3182 15.9497C12.1905 15.8219 12.0892 15.6702 12.0202 15.5033C11.9511 15.3364 11.9156 15.1576 11.9156 14.9769C11.9157 14.7963 11.9513 14.6175 12.0205 14.4506C12.0897 14.2838 12.1911 14.1322 12.3188 14.0045C12.4466 13.8768 12.5983 13.7755 12.7652 13.7065C12.9321 13.6374 13.1109 13.6019 13.2916 13.6019C13.6564 13.6021 14.0062 13.7471 14.264 14.0051C14.5219 14.2632 14.6667 14.6131 14.6666 14.9779C14.6664 15.3426 14.5214 15.6925 14.2634 15.9503C14.0053 16.2082 13.6554 16.353 13.2906 16.3529Z" fill="url(#paint0_linear)"/>
<defs>
<linearGradient id="paint0_linear" x1="2.00018" y1="11.7786" x2="20.0002" y2="11.7786" gradientUnits="userSpaceOnUse">
<stop stop-color="#FEAA3A"/>
<stop offset="1" stop-color="#FEC73A"/>
</linearGradient>
</defs>
</svg>
