<svg width="61" height="61" viewBox="0 0 61 61" fill="none" xmlns="http://www.w3.org/2000/svg">
<g opacity="0.05">
<path d="M9.38187 15.9921C12.9478 12.1263 18.3438 10.1666 25.4172 10.1666H27.9589V17.3316L25.9154 17.7408C22.4333 18.4372 20.0111 19.8072 18.7149 21.8176C18.0385 22.9007 17.6549 24.1408 17.6016 25.4166H25.4172C26.0913 25.4166 26.7378 25.6844 27.2145 26.1611C27.6911 26.6377 27.9589 27.2842 27.9589 27.9583V45.75C27.9589 48.5534 25.679 50.8333 22.8756 50.8333H7.62558C6.95149 50.8333 6.30501 50.5655 5.82835 50.0889C5.3517 49.6122 5.08391 48.9657 5.08391 48.2916V35.5833L5.09154 28.1642C5.06866 27.882 4.58575 21.1975 9.38187 15.9921ZM50.8339 50.8333H35.5839C34.9098 50.8333 34.2633 50.5655 33.7867 50.0889C33.31 49.6122 33.0422 48.9657 33.0422 48.2916V35.5833L33.0499 28.1642C33.027 27.882 32.5441 21.1975 37.3402 15.9921C40.9062 12.1263 46.3021 10.1666 53.3756 10.1666H55.9173V17.3316L53.8738 17.7408C50.3917 18.4372 47.9695 19.8072 46.6732 21.8176C45.9969 22.9007 45.6133 24.1408 45.56 25.4166H53.3756C54.0497 25.4166 54.6962 25.6844 55.1728 26.1611C55.6495 26.6377 55.9173 27.2842 55.9173 27.9583V45.75C55.9173 48.5534 53.6374 50.8333 50.8339 50.8333Z" fill="black"/>
</g>
</svg>
