<svg width="64" height="64" viewBox="0 0 64 64" fill="none" xmlns="http://www.w3.org/2000/svg">
<path d="M32.0001 64C49.625 64 64 49.6247 64 31.9999C64 14.375 49.625 0 32.0001 0C14.375 0 0 14.375 0 31.9999C0 49.6247 14.375 64 32.0001 64Z" fill="#BBDEFB" fill-opacity="0.8"/>
<g clip-path="url(#clip0)">
<path d="M45.7523 31.4308H43.8554V27.1153C43.8554 20.6987 38.6536 15.497 32.237 15.497C25.8204 15.497 20.6187 20.6987 20.6187 27.1153V31.4308H18.7218V27.1153C18.7218 19.6511 24.7728 13.6001 32.237 13.6001C39.7013 13.6001 45.7523 19.6511 45.7523 27.1153V31.4308Z" fill="#233952"/>
<path d="M46.3689 40.8678C45.9408 40.5659 45.3491 40.6681 45.0472 41.0962C45.0451 41.0991 45.0431 41.102 45.0411 41.1049L43.8081 42.7647C42.2787 44.8112 39.812 45.9372 37.2639 45.7522C37.1208 45.103 36.7911 44.5096 36.3155 44.0451C35.6277 43.3119 34.665 42.8994 33.6598 42.9069C31.5908 42.9069 29.9136 44.5842 29.9136 46.6532C29.9395 48.7299 31.6304 50.3997 33.7073 50.3995C35.4012 50.4298 36.8936 49.2909 37.3114 47.649H37.7855C40.7493 47.6603 43.5444 46.2715 45.3256 43.9027L46.5586 42.1956C46.8728 41.7766 46.7879 41.1821 46.3689 40.8678Z" fill="#57697D"/>
<path d="M45.8472 30.4823C47.4121 30.4823 48.6925 32.2369 48.6925 33.8018V39.7295C48.6925 41.3418 47.4121 42.1005 45.8472 42.1005H42.8121V30.4822H45.8472V30.4823Z" fill="#FF5B61"/>
<path d="M21.6621 30.4832V42.1015H18.1528C16.5814 42.1015 15.3075 40.8276 15.3075 39.2562V33.3285C15.3075 31.7571 16.5813 30.4832 18.1528 30.4832H21.6621Z" fill="#FF5B61"/>
</g>
<defs>
<clipPath id="clip0">
<rect x="13.6" y="13.6001" width="36.8" height="36.8" fill="white"/>
</clipPath>
</defs>
</svg>
