<svg width="64" height="64" viewBox="0 0 64 64" fill="none" xmlns="http://www.w3.org/2000/svg">
<path d="M32.0001 64C49.625 64 64 49.6247 64 31.9999C64 14.375 49.625 0 32.0001 0C14.375 0 0 14.375 0 31.9999C0 49.6247 14.375 64 32.0001 64Z" fill="#BBDEFB" fill-opacity="0.8"/>
<rect x="15" y="22" width="34.9857" height="21.75" rx="3" fill="#57697D"/>
<path d="M15 36.25H49.9857V40H15V36.25Z" fill="#FF5B61"/>
<path d="M18.1099 30.25H27.7351V33.1283H18.1099V30.25Z" fill="#E2E8ED"/>
<path d="M39 33.2366C40.8107 31.7408 43.1161 30.9187 45.5 30.9187C47.8839 30.9187 50.1892 31.7408 52 33.2366V37.2203C51.9999 38.7856 51.5734 40.3234 50.7631 41.6796C49.9529 43.0358 48.7874 44.1628 47.3835 44.9476L45.5 46L43.6165 44.9476C42.2125 44.1628 41.047 43.0358 40.2368 41.6796C39.4266 40.3234 39.0001 38.7856 39 37.2203V33.2366Z" fill="#44D65C"/>
<path d="M44.6911 41.0433C44.5785 41.0434 44.467 41.022 44.3631 40.9804C44.2591 40.9388 44.1646 40.8778 44.0851 40.8009L42.4015 39.1767C42.3196 39.1005 42.2543 39.0092 42.2093 38.9083C42.1644 38.8074 42.1407 38.6989 42.1397 38.5891C42.1387 38.4793 42.1603 38.3704 42.2034 38.2688C42.2465 38.1671 42.3101 38.0748 42.3906 37.9971C42.4711 37.9195 42.5668 37.858 42.6721 37.8164C42.7775 37.7748 42.8904 37.7539 43.0042 37.7548C43.118 37.7558 43.2305 37.7785 43.3351 37.8219C43.4397 37.8652 43.5343 37.9282 43.6134 38.0071L44.6911 39.0468L47.7282 36.1169C47.889 35.9618 48.1071 35.8747 48.3344 35.8747C48.5618 35.8747 48.7799 35.9618 48.9406 36.1169C49.1014 36.272 49.1917 36.4824 49.1917 36.7017C49.1917 36.921 49.1014 37.1314 48.9406 37.2865L45.2951 40.8033C45.1347 40.9573 44.9174 41.0436 44.6911 41.0433V41.0433Z" fill="white"/>
</svg>
