<svg width="32" height="32" viewBox="0 0 32 32" fill="none" xmlns="http://www.w3.org/2000/svg">
<path d="M1.47261 30.4483L3.51886 23.0149C2.25709 20.8345 1.59333 18.3619 1.59424 15.8452C1.59424 7.93427 8.06223 1.49866 15.9967 1.49866C19.8532 1.49866 23.4665 2.99531 26.1852 5.70348C28.904 8.41178 30.3995 12.0181 30.3995 15.8523C30.3995 23.7632 23.9315 30.1988 15.9969 30.1988H15.9897C13.5785 30.1988 11.2102 29.593 9.10673 28.4527L1.47261 30.4484V30.4483Z" fill="url(#paint0_linear)"/>
<path d="M0.950356 30.9687L3.06811 23.2716C1.76598 21.0195 1.07186 18.4609 1.07911 15.8454C1.07911 7.64938 7.77598 0.985657 16.0041 0.985657C19.9964 0.985657 23.7454 2.53212 26.5574 5.34015C29.3762 8.14818 30.9289 11.8827 30.9217 15.8525C30.9217 24.0484 24.2249 30.7122 15.9967 30.7122H15.9897C13.4975 30.7112 11.0452 30.0888 8.85635 28.9019L0.950356 30.9688V30.9687ZM9.22836 26.2079L9.6791 26.4787C11.5824 27.6048 13.7645 28.1964 15.9897 28.2035H15.9969C22.8296 28.2035 28.3961 22.6658 28.3961 15.8525C28.3961 12.5527 27.1082 9.45246 24.7686 7.11484C22.429 4.77722 19.3095 3.49436 15.9969 3.49436C9.15685 3.49436 3.59048 9.03197 3.59048 15.8454C3.59048 18.1759 4.24148 20.4494 5.48648 22.4163L5.77985 22.8867L4.52773 27.4408L9.22836 26.2079Z" fill="white"/>
<path d="M12.2692 9.62351C11.9901 9.00343 11.6967 8.98911 11.4321 8.98201C11.2175 8.97491 10.9671 8.97491 10.7166 8.97491C10.4662 8.97491 10.0655 9.06755 9.72211 9.43811C9.37861 9.80878 8.41986 10.7068 8.41986 12.5385C8.41986 14.3629 9.75786 16.1303 9.94386 16.3797C10.1299 16.6293 12.5267 20.4992 16.3116 21.9887C19.4597 23.2289 20.1037 22.9793 20.7834 22.9152C21.4702 22.8511 22.9871 22.0172 23.3019 21.1477C23.6095 20.2783 23.6095 19.537 23.5165 19.3803C23.4235 19.2234 23.1731 19.1309 22.801 18.9455C22.429 18.7602 20.5974 17.8622 20.254 17.734C19.9105 17.6057 19.6601 17.5487 19.4169 17.9192C19.1664 18.2898 18.451 19.1237 18.2362 19.3732C18.0216 19.6226 17.7999 19.6511 17.4277 19.4658C17.0557 19.2805 15.8537 18.8884 14.43 17.6199C13.321 16.6364 12.5697 15.4176 12.355 15.0471C12.1404 14.6765 12.3336 14.4768 12.5196 14.2916C12.6841 14.1277 12.8916 13.8568 13.0777 13.6431C13.2637 13.4293 13.3281 13.2725 13.4497 13.023C13.5714 12.7736 13.5141 12.5598 13.4211 12.3745C13.3281 12.1891 12.5984 10.3575 12.2692 9.62351Z" fill="white"/>
<defs>
<linearGradient id="paint0_linear" x1="15.9355" y1="30.4464" x2="15.9355" y2="1.49692" gradientUnits="userSpaceOnUse">
<stop stop-color="#20B038"/>
<stop offset="1" stop-color="#60D66A"/>
</linearGradient>
</defs>
</svg>
